<svg width="96" height="32" viewBox="0 0 96 32" fill="none" xmlns="http://www.w3.org/2000/svg">
<g clip-path="url(#clip0)">
<path d="M88.3552 0.000104H7.64916C7.35497 0.000104 7.06432 0.000104 6.77091 0.001704C6.52531 0.003304 6.28166 0.007952 6.03369 0.011864C5.49499 0.0181854 4.95756 0.065445 4.42607 0.153232C3.89532 0.24293 3.3812 0.412037 2.9011 0.654832C2.42158 0.899681 1.98343 1.21784 1.60254 1.59776C1.21966 1.97661 0.900491 2.41452 0.65732 2.89463C0.413478 3.37379 0.244397 3.88726 0.155916 4.41729C0.0665952 4.94665 0.0185306 5.48212 0.012154 6.01889C0.00470918 6.26417 0.00392298 6.51026 0 6.75558V25.247C0.00392298 25.4954 0.00470918 25.736 0.012154 25.9845C0.0185325 26.5212 0.0665971 27.0567 0.155916 27.586C0.244152 28.1164 0.413243 28.6301 0.65732 29.1095C0.900381 29.588 1.21959 30.0242 1.60254 30.4009C1.98198 30.7825 2.42042 31.1009 2.9011 31.3439C3.3812 31.5873 3.89526 31.7574 4.42607 31.8485C4.95765 31.9356 5.49503 31.9829 6.03369 31.9899C6.28166 31.9954 6.52531 31.9985 6.77091 31.9985C7.06431 32.0001 7.35499 32.0001 7.64916 32.0001H88.3552C88.6435 32.0001 88.9365 32.0001 89.2248 31.9985C89.4692 31.9985 89.7199 31.9954 89.9644 31.9899C90.502 31.9832 91.0384 31.936 91.5689 31.8485C92.1014 31.7568 92.6173 31.5867 93.0997 31.3439C93.58 31.1007 94.018 30.7824 94.3971 30.4009C94.7791 30.0227 95.099 29.5869 95.345 29.1095C95.5873 28.6298 95.7548 28.1161 95.8417 27.586C95.9312 27.0566 95.9809 26.5213 95.9906 25.9845C95.9937 25.736 95.9937 25.4954 95.9937 25.247C96 24.9563 96 24.6673 96 24.3719V7.62901C96 7.33604 96 7.04542 95.9937 6.75558C95.9937 6.51026 95.9937 6.26417 95.9906 6.01886C95.9809 5.48204 95.9312 4.94669 95.8417 4.41726C95.7545 3.88753 95.5871 3.37411 95.345 2.8946C94.8498 1.93226 94.0646 1.14892 93.0997 0.65476C92.6173 0.412558 92.1013 0.243496 91.5689 0.15316C91.0385 0.0649862 90.5021 0.0177102 89.9644 0.011752C89.7199 0.007848 89.4692 0.00316 89.2248 0.0016C88.9365 0 88.6435 0 88.3552 0V0.000104Z" fill="#A6A6A6"/>
<path d="M6.77466 31.3002C6.53023 31.3002 6.2917 31.2971 6.04919 31.2916C5.54681 31.2851 5.04561 31.2415 4.54968 31.1612C4.08726 31.0817 3.6393 30.934 3.22057 30.7228C2.80568 30.5134 2.42727 30.2388 2.09983 29.9096C1.76766 29.5842 1.4911 29.2068 1.28113 28.7924C1.06885 28.3752 0.921938 27.9281 0.845514 27.4666C0.762983 26.9707 0.71833 26.4692 0.71194 25.9666C0.706854 25.7979 0.700195 25.2361 0.700195 25.2361V6.75567C0.700195 6.75567 0.707287 6.20254 0.71198 6.04004C0.718098 5.53818 0.762491 5.03752 0.844776 4.54238C0.921341 4.0796 1.06837 3.63119 1.28076 3.2127C1.48996 2.79855 1.76498 2.42088 2.09516 2.09434C2.42496 1.76469 2.80458 1.48868 3.22018 1.27636C3.63794 1.06587 4.08506 0.919181 4.54655 0.841211C5.0441 0.760064 5.54704 0.716192 6.05117 0.709963L6.77505 0.700195H89.2207L89.9532 0.710355C90.4528 0.716275 90.9511 0.759755 91.4441 0.840427C91.9103 0.919375 92.3621 1.06709 92.7846 1.27871C93.6172 1.70658 94.2946 2.38353 94.722 3.21465C94.931 3.63026 95.0758 4.075 95.1514 4.53379C95.2346 5.03299 95.2812 5.53759 95.2908 6.04356C95.2931 6.27012 95.2931 6.51348 95.2931 6.75567C95.2995 7.05567 95.2995 7.34121 95.2995 7.6291V24.372C95.2995 24.6627 95.2995 24.9463 95.2931 25.2322C95.2931 25.4924 95.2931 25.7307 95.29 25.976C95.2806 26.4729 95.2348 26.9685 95.1529 27.4588C95.078 27.9236 94.9319 28.3742 94.7197 28.7948C94.5082 29.2047 94.2333 29.5788 93.9049 29.9033C93.5772 30.2343 93.1981 30.5106 92.7823 30.7213C92.3609 30.9341 91.9098 31.0824 91.4441 31.1612C90.9482 31.2419 90.447 31.2855 89.9446 31.2916C89.7096 31.2971 89.4635 31.3002 89.2246 31.3002L88.355 31.3018L6.77466 31.3002Z" fill="black"/>
<path d="M19.8706 16.2408C19.8792 15.5731 20.0571 14.9184 20.3876 14.3377C20.7182 13.7569 21.1907 13.2689 21.7611 12.9192C21.3987 12.4031 20.9206 11.9783 20.3648 11.6787C19.809 11.379 19.1908 11.2128 18.5592 11.1931C17.2121 11.052 15.9061 11.9969 15.2196 11.9969C14.5198 11.9969 13.4628 11.2071 12.3247 11.2304C11.5885 11.2541 10.871 11.4676 10.2421 11.8501C9.61326 12.2325 9.09446 12.7709 8.73629 13.4127C7.18475 16.0914 8.34206 20.0283 9.8283 22.1936C10.5719 23.2538 11.441 24.4382 12.5781 24.3962C13.6909 24.3502 14.1065 23.6886 15.4497 23.6886C16.7804 23.6886 17.1703 24.3962 18.3305 24.3695C19.5246 24.3502 20.2769 23.3045 20.9944 22.2342C21.5287 21.4787 21.9398 20.6437 22.2125 19.7602C21.5188 19.4676 20.9268 18.9779 20.5104 18.352C20.0939 17.7262 19.8714 16.9919 19.8706 16.2408Z" fill="white"/>
<path d="M17.679 9.76906C18.33 8.98969 18.6508 7.98795 18.5731 6.97656C17.5785 7.08074 16.6597 7.55479 15.9998 8.30425C15.6772 8.67038 15.4301 9.09633 15.2727 9.55775C15.1153 10.0192 15.0506 10.507 15.0823 10.9934C15.5798 10.9985 16.072 10.8909 16.5218 10.6789C16.9716 10.4668 17.3672 10.1557 17.679 9.76906Z" fill="white"/>
<path d="M33.9366 21.7121H30.1392L29.2273 24.3973H27.6189L31.2157 14.4629H32.8868L36.4836 24.3973H34.8477L33.9366 21.7121ZM30.5325 20.4731H33.5425L32.0587 16.1153H32.0172L30.5325 20.4731Z" fill="white"/>
<path d="M44.2515 20.7761C44.2515 23.0269 43.0434 24.473 41.2204 24.473C40.7585 24.4971 40.2993 24.391 39.8951 24.1669C39.4909 23.9428 39.1582 23.6097 38.9351 23.2058H38.9006V26.7933H37.4097V17.1543H38.8528V18.359H38.8802C39.1136 17.957 39.452 17.6256 39.8592 17.4002C40.2665 17.1747 40.7274 17.0635 41.1929 17.0785C43.0363 17.0785 44.2515 18.5316 44.2515 20.7761ZM42.7191 20.7761C42.7191 19.3097 41.9591 18.3457 40.7996 18.3457C39.6605 18.3457 38.8943 19.3301 38.8943 20.7761C38.8943 22.2355 39.6605 23.2129 40.7996 23.2129C41.9591 23.2129 42.7191 22.2558 42.7191 20.7761Z" fill="white"/>
<path d="M52.2456 20.7761C52.2456 23.0269 51.0376 24.473 49.2145 24.473C48.7527 24.4971 48.2934 24.391 47.8892 24.1669C47.4851 23.9428 47.1524 23.6097 46.9292 23.2058H46.8947V26.7933H45.4038V17.1543H46.8469V18.3589H46.8743C47.1077 17.957 47.4461 17.6256 47.8533 17.4002C48.2606 17.1747 48.7215 17.0635 49.1871 17.0785C51.0305 17.0785 52.2456 18.5316 52.2456 20.7761ZM50.7132 20.7761C50.7132 19.3097 49.9533 18.3457 48.7938 18.3457C47.6547 18.3457 46.8885 19.33 46.8885 20.7761C46.8885 22.2355 47.6547 23.2129 48.7938 23.2129C49.9533 23.2129 50.7132 22.2558 50.7132 20.7761H50.7132Z" fill="white"/>
<path d="M57.5291 21.6289C57.6396 22.6141 58.5993 23.2609 59.9108 23.2609C61.1674 23.2609 62.0715 22.6141 62.0715 21.7258C62.0715 20.9547 61.5262 20.493 60.2351 20.1766L58.944 19.8664C57.1147 19.4258 56.2654 18.5727 56.2654 17.1883C56.2654 15.4742 57.7634 14.2969 59.8904 14.2969C61.9955 14.2969 63.4386 15.4742 63.4872 17.1883H61.9822C61.8921 16.1969 61.0702 15.5984 59.8692 15.5984C58.6682 15.5984 57.8464 16.2039 57.8464 17.0852C57.8464 17.7875 58.3713 18.2008 59.6553 18.5172L60.7529 18.7859C62.7969 19.2679 63.6462 20.0867 63.6462 21.5398C63.6462 23.3984 62.1616 24.5625 59.8003 24.5625C57.591 24.5625 56.0993 23.4258 56.0029 21.6289L57.5291 21.6289Z" fill="white"/>
<path d="M66.8638 15.4395V17.1535H68.245V18.3309H66.8638V22.3238C66.8638 22.9441 67.1404 23.2332 67.7476 23.2332C67.9115 23.2304 68.0752 23.2189 68.238 23.1988V24.3691C67.965 24.42 67.6875 24.443 67.4099 24.4379C65.9394 24.4379 65.3659 23.8871 65.3659 22.4824V18.3309H64.3098V17.1535H65.3659V15.4395H66.8638Z" fill="white"/>
<path d="M69.0452 20.7754C69.0452 18.4965 70.3911 17.0645 72.49 17.0645C74.5959 17.0645 75.9356 18.4965 75.9356 20.7754C75.9356 23.0605 74.6029 24.4863 72.49 24.4863C70.3778 24.4863 69.0452 23.0605 69.0452 20.7754ZM74.4165 20.7754C74.4165 19.2121 73.698 18.2895 72.49 18.2895C71.2819 18.2895 70.5643 19.2191 70.5643 20.7754C70.5643 22.3449 71.2819 23.2605 72.49 23.2605C73.698 23.2605 74.4164 22.3449 74.4164 20.7754H74.4165Z" fill="white"/>
<path d="M77.1648 17.1542H78.5867V18.387H78.6212C78.7175 18.002 78.9436 17.6617 79.2618 17.4234C79.58 17.1851 79.9707 17.0633 80.3683 17.0784C80.5401 17.0778 80.7115 17.0964 80.8791 17.1339V18.5245C80.6622 18.4584 80.436 18.4281 80.2093 18.4347C79.9927 18.4259 79.7767 18.464 79.5763 18.5463C79.3759 18.6286 79.1957 18.7532 79.0481 18.9115C78.9005 19.0698 78.789 19.2581 78.7213 19.4634C78.6535 19.6688 78.6312 19.8863 78.6557 20.1011V24.3972H77.1648L77.1648 17.1542Z" fill="white"/>
<path d="M87.7529 22.2691C87.5523 23.584 86.2682 24.4863 84.6254 24.4863C82.5124 24.4863 81.2009 23.0746 81.2009 20.8098C81.2009 18.5379 82.5195 17.0645 84.5627 17.0645C86.5722 17.0645 87.8359 18.441 87.8359 20.6371V21.1465H82.7059V21.2363C82.6823 21.5029 82.7157 21.7714 82.8041 22.0241C82.8925 22.2768 83.0338 22.5078 83.2186 22.7018C83.4034 22.8959 83.6275 23.0485 83.876 23.1495C84.1245 23.2506 84.3917 23.2977 84.6598 23.2879C85.0122 23.3208 85.3657 23.2394 85.6679 23.0559C85.9702 22.8723 86.2049 22.5964 86.3372 22.2691L87.7529 22.2691ZM82.713 20.1074H86.3442C86.3576 19.8677 86.3212 19.6279 86.2372 19.4029C86.1532 19.178 86.0235 18.9727 85.8562 18.8001C85.689 18.6275 85.4877 18.4912 85.2651 18.3999C85.0425 18.3085 84.8034 18.264 84.5627 18.2691C84.3199 18.2677 84.0792 18.3142 83.8546 18.406C83.6299 18.4978 83.4257 18.6331 83.2537 18.804C83.0818 18.9749 82.9454 19.178 82.8526 19.4018C82.7598 19.6255 82.7124 19.8653 82.713 20.1074V20.1074Z" fill="white"/>
<path d="M30.346 6.98491C30.6586 6.96254 30.9722 7.00963 31.2643 7.12278C31.5564 7.23592 31.8197 7.41231 32.0352 7.63921C32.2507 7.86611 32.4129 8.13787 32.5103 8.43488C32.6077 8.7319 32.6378 9.04677 32.5984 9.35678C32.5984 10.8818 31.7719 11.7584 30.346 11.7584H28.6169V6.98491H30.346ZM29.3604 11.0833H30.263C30.4863 11.0966 30.7098 11.0601 30.9172 10.9764C31.1246 10.8927 31.3107 10.764 31.4619 10.5995C31.6132 10.4351 31.7257 10.2391 31.7914 10.0258C31.857 9.81246 31.8742 9.58725 31.8416 9.36651C31.8718 9.14664 31.8529 8.92282 31.7863 8.71109C31.7196 8.49936 31.6068 8.30496 31.4559 8.14182C31.305 7.97867 31.1198 7.85083 30.9136 7.76744C30.7073 7.68405 30.4852 7.64718 30.263 7.65948H29.3604V11.0833Z" fill="white"/>
<path d="M33.4382 9.95602C33.4155 9.71928 33.4427 9.48043 33.518 9.25477C33.5932 9.02912 33.715 8.82164 33.8754 8.64566C34.0358 8.46967 34.2313 8.32906 34.4494 8.23284C34.6675 8.13662 34.9033 8.08691 35.1418 8.08691C35.3803 8.08691 35.6162 8.13662 35.8343 8.23284C36.0523 8.32906 36.2479 8.46967 36.4083 8.64566C36.5687 8.82164 36.6904 9.02912 36.7657 9.25477C36.841 9.48043 36.8681 9.71928 36.8454 9.95602C36.8686 10.193 36.8417 10.4322 36.7667 10.6582C36.6916 10.8842 36.5699 11.0921 36.4095 11.2684C36.249 11.4447 36.0533 11.5856 35.835 11.6821C35.6167 11.7785 35.3806 11.8283 35.1418 11.8283C34.9031 11.8283 34.6669 11.7785 34.4486 11.6821C34.2303 11.5856 34.0347 11.4447 33.8742 11.2684C33.7138 11.0921 33.5921 10.8842 33.517 10.6582C33.4419 10.4322 33.4151 10.193 33.4382 9.95602ZM36.1121 9.95602C36.1121 9.17516 35.7604 8.71852 35.143 8.71852C34.5233 8.71852 34.1747 9.17516 34.1747 9.95603C34.1747 10.7431 34.5233 11.1963 35.143 11.1963C35.7604 11.1962 36.1121 10.74 36.1121 9.95602H36.1121Z" fill="white"/>
<path d="M41.3745 11.7586H40.6349L39.8883 9.10547H39.8319L39.0884 11.7586H38.3559L37.3601 8.15625H38.0832L38.7304 10.9051H38.7836L39.5263 8.15625H40.2103L40.953 10.9051H41.0094L41.6534 8.15625H42.3663L41.3745 11.7586Z" fill="white"/>
<path d="M43.2039 8.15609H43.8902V8.72835H43.9434C44.0338 8.52282 44.1862 8.35052 44.3795 8.23547C44.5727 8.12043 44.7971 8.06837 45.0214 8.08655C45.1972 8.07338 45.3737 8.0998 45.5378 8.16388C45.702 8.22796 45.8496 8.32804 45.9696 8.45672C46.0897 8.58539 46.1792 8.73936 46.2315 8.90721C46.2838 9.07507 46.2976 9.25251 46.2718 9.42639V11.7584H45.5589V9.60492C45.5589 9.02602 45.3066 8.73812 44.7794 8.73812C44.66 8.73258 44.5409 8.75283 44.4301 8.7975C44.3194 8.84216 44.2196 8.91018 44.1377 8.99689C44.0558 9.08359 43.9936 9.18694 43.9555 9.29985C43.9173 9.41275 43.9041 9.53254 43.9168 9.65101V11.7584H43.2039L43.2039 8.15609Z" fill="white"/>
<path d="M47.4077 6.75H48.1207V11.7586H47.4077V6.75Z" fill="white"/>
<path d="M49.1118 9.95608C49.0891 9.71933 49.1163 9.48047 49.1916 9.2548C49.2669 9.02914 49.3886 8.82166 49.5491 8.64567C49.7095 8.46968 49.905 8.32906 50.1231 8.23284C50.3412 8.13662 50.5771 8.08691 50.8156 8.08691C51.0541 8.08691 51.29 8.13662 51.5081 8.23284C51.7262 8.32906 51.9217 8.46968 52.0821 8.64567C52.2425 8.82166 52.3643 9.02914 52.4396 9.2548C52.5149 9.48047 52.5421 9.71933 52.5194 9.95608C52.5425 10.1931 52.5156 10.4323 52.4405 10.6583C52.3654 10.8843 52.2437 11.0921 52.0833 11.2685C51.9228 11.4448 51.7271 11.5857 51.5088 11.6821C51.2905 11.7785 51.0544 11.8284 50.8156 11.8284C50.5768 11.8284 50.3407 11.7785 50.1224 11.6821C49.904 11.5857 49.7084 11.4448 49.5479 11.2685C49.3875 11.0921 49.2658 10.8843 49.1907 10.6583C49.1155 10.4323 49.0887 10.1931 49.1118 9.95608ZM51.7857 9.95608C51.7857 9.17523 51.4339 8.71859 50.8166 8.71859C50.1969 8.71859 49.8483 9.17523 49.8483 9.95609C49.8483 10.7432 50.1969 11.1963 50.8166 11.1963C51.4339 11.1963 51.7857 10.7401 51.7857 9.95608H51.7857Z" fill="white"/>
<path d="M53.27 10.74C53.27 10.0916 53.7542 9.71777 54.6136 9.66464L55.5922 9.60839V9.29746C55.5922 8.91699 55.3399 8.70215 54.8526 8.70215C54.4546 8.70215 54.1788 8.84785 54.0997 9.10254H53.4095C53.4823 8.48379 54.066 8.08691 54.8855 8.08691C55.7911 8.08691 56.302 8.53651 56.302 9.29746V11.7588H55.6157V11.2525H55.5592C55.4448 11.4341 55.284 11.5822 55.0933 11.6815C54.9027 11.7809 54.6891 11.828 54.4742 11.8181C54.3225 11.8339 54.1692 11.8177 54.0242 11.7708C53.8792 11.7238 53.7457 11.6471 53.6322 11.5455C53.5188 11.4439 53.4279 11.3198 53.3655 11.181C53.3032 11.0423 53.2706 10.8921 53.27 10.74ZM55.5922 10.4322V10.131L54.71 10.1873C54.2125 10.2205 53.9869 10.3892 53.9869 10.7068C53.9869 11.031 54.2689 11.2197 54.6567 11.2197C54.7704 11.2312 54.8852 11.2197 54.9943 11.1861C55.1034 11.1524 55.2046 11.0972 55.2919 11.0237C55.3791 10.9502 55.4507 10.86 55.5023 10.7584C55.5539 10.6568 55.5844 10.5459 55.5922 10.4322Z" fill="white"/>
<path d="M57.2388 9.95587C57.2388 8.81759 57.8256 8.0965 58.7383 8.0965C58.964 8.08612 59.1881 8.14005 59.3843 8.25196C59.5805 8.36388 59.7406 8.52916 59.8461 8.7285H59.8994V6.75H60.6123V11.7586H59.9291V11.1894H59.8727C59.7591 11.3874 59.5934 11.5507 59.3934 11.6615C59.1934 11.7722 58.9669 11.8264 58.7383 11.818C57.8193 11.818 57.2388 11.0969 57.2388 9.95587ZM57.9752 9.95587C57.9752 10.7199 58.3364 11.1797 58.9404 11.1797C59.5413 11.1797 59.9127 10.7133 59.9127 9.959C59.9127 9.20822 59.5374 8.73517 58.9404 8.73517C58.3403 8.73517 57.9752 9.19806 57.9752 9.95587H57.9752Z" fill="white"/>
<path d="M63.562 9.95602C63.5393 9.71928 63.5665 9.48043 63.6417 9.25477C63.717 9.02912 63.8388 8.82164 63.9992 8.64566C64.1596 8.46967 64.3551 8.32906 64.5732 8.23284C64.7913 8.13662 65.0271 8.08691 65.2656 8.08691C65.5041 8.08691 65.7399 8.13662 65.958 8.23284C66.1761 8.32906 66.3716 8.46967 66.532 8.64566C66.6924 8.82164 66.8142 9.02912 66.8895 9.25477C66.9647 9.48043 66.9919 9.71928 66.9692 9.95602C66.9923 10.193 66.9655 10.4322 66.8904 10.6582C66.8153 10.8842 66.6937 11.0921 66.5332 11.2684C66.3728 11.4447 66.1771 11.5856 65.9588 11.6821C65.7405 11.7785 65.5044 11.8283 65.2656 11.8283C65.0268 11.8283 64.7907 11.7785 64.5724 11.6821C64.3541 11.5856 64.1584 11.4447 63.998 11.2684C63.8375 11.0921 63.7159 10.8842 63.6408 10.6582C63.5657 10.4322 63.5389 10.193 63.562 9.95602ZM66.2359 9.95602C66.2359 9.17516 65.8841 8.71852 65.2668 8.71852C64.6471 8.71852 64.2985 9.17516 64.2985 9.95603C64.2985 10.7431 64.6471 11.1963 65.2668 11.1963C65.8841 11.1962 66.2359 10.74 66.2359 9.95602Z" fill="white"/>
<path d="M67.9258 8.15609H68.6121V8.72835H68.6654C68.7557 8.52282 68.9082 8.35052 69.1014 8.23547C69.2946 8.12043 69.5191 8.06837 69.7434 8.08655C69.9191 8.07338 70.0956 8.0998 70.2598 8.16388C70.4239 8.22796 70.5715 8.32804 70.6916 8.45672C70.8116 8.58539 70.9012 8.73936 70.9535 8.90721C71.0058 9.07507 71.0195 9.25251 70.9937 9.42639V11.7584H70.2808V9.60492C70.2808 9.02602 70.0285 8.73812 69.5013 8.73812C69.3819 8.73258 69.2628 8.75283 69.1521 8.7975C69.0413 8.84216 68.9415 8.91018 68.8596 8.99689C68.7777 9.08359 68.7155 9.18694 68.6774 9.29985C68.6393 9.41275 68.6261 9.53254 68.6387 9.65101V11.7584H67.9258V8.15609Z" fill="white"/>
<path d="M75.0223 7.25977V8.17304H75.805V8.77188H75.0223V10.6242C75.0223 11.0016 75.1782 11.1668 75.5331 11.1668C75.624 11.1665 75.7147 11.161 75.805 11.1504V11.7426C75.6769 11.7654 75.5472 11.7776 75.4172 11.7789C74.6243 11.7789 74.3086 11.5008 74.3086 10.8062V8.77184H73.7351V8.17301H74.3086V7.25977H75.0223Z" fill="white"/>
<path d="M76.7788 6.75H77.4855V8.73516H77.5419C77.6367 8.5277 77.7933 8.35443 77.9904 8.23895C78.1875 8.12347 78.4155 8.07141 78.6434 8.08985C78.8182 8.08036 78.993 8.10947 79.1553 8.1751C79.3176 8.24074 79.4633 8.34128 79.5822 8.46955C79.701 8.59782 79.79 8.75066 79.8427 8.91716C79.8955 9.08367 79.9108 9.25974 79.8875 9.43281V11.7586H79.1738V9.6082C79.1738 9.03281 78.9051 8.7414 78.4014 8.7414C78.2788 8.73138 78.1556 8.74818 78.0402 8.79062C77.9249 8.83306 77.8202 8.90012 77.7336 8.98711C77.647 9.0741 77.5804 9.17892 77.5387 9.29423C77.4969 9.40954 77.4809 9.53256 77.4918 9.65468V11.7586H76.7788L76.7788 6.75Z" fill="white"/>
<path d="M84.0444 10.7862C83.9475 11.1154 83.7377 11.4002 83.4515 11.5907C83.1654 11.7812 82.8211 11.8654 82.4791 11.8284C82.2411 11.8346 82.0046 11.7892 81.7859 11.6952C81.5673 11.6011 81.3718 11.4608 81.2131 11.2839C81.0543 11.107 80.936 10.8977 80.8665 10.6707C80.7969 10.4436 80.7778 10.2042 80.8103 9.96901C80.7786 9.7331 80.7981 9.49315 80.8675 9.26541C80.9369 9.03768 81.0546 8.82746 81.2125 8.649C81.3704 8.47054 81.565 8.32801 81.7829 8.23104C82.0009 8.13408 82.2373 8.08494 82.4759 8.08697C83.4811 8.08697 84.0875 8.77177 84.0875 9.90297V10.151H81.5366V10.1909C81.5254 10.3231 81.5421 10.4561 81.5855 10.5815C81.6289 10.7069 81.6981 10.8219 81.7887 10.9191C81.8793 11.0162 81.9892 11.0935 82.1115 11.1458C82.2338 11.1981 82.3656 11.2244 82.4986 11.2229C82.6692 11.2433 82.842 11.2127 82.995 11.1349C83.148 11.0571 83.2744 10.9358 83.3581 10.7862L84.0444 10.7862ZM81.5366 9.62525H83.3612C83.3702 9.50435 83.3537 9.38291 83.3128 9.26874C83.272 9.15456 83.2076 9.05018 83.1238 8.96229C83.0401 8.87441 82.9388 8.80496 82.8266 8.75842C82.7143 8.71188 82.5935 8.68928 82.472 8.69205C82.3487 8.69051 82.2263 8.71359 82.1121 8.75995C81.9979 8.80631 81.8941 8.87499 81.807 8.96196C81.7198 9.04894 81.6509 9.15243 81.6045 9.26635C81.5581 9.38026 81.535 9.5023 81.5366 9.62525H81.5366Z" fill="white"/>
</g>
<defs>
<clipPath id="clip0">
<rect width="96" height="32" fill="white"/>
</clipPath>
</defs>
</svg>
