<svg width="198" height="40" viewBox="0 0 198 40" fill="none" xmlns="http://www.w3.org/2000/svg">
<g clip-path="url(#clip0)">
<path fill-rule="evenodd" clip-rule="evenodd" d="M21.6881 3.36557C21.2936 2.37536 20.6116 1.52633 19.7301 0.928213C18.8486 0.330094 17.8082 0.010376 16.7433 0.010376C15.6784 0.010376 14.6379 0.330094 13.7564 0.928213C12.8749 1.52633 12.1929 2.37536 11.7984 3.36557L0 33.8378L6.72445 36.4323L9.28552 29.315H24.1704L26.7358 36.4323L33.4559 33.8378L21.6881 3.36557ZM16.7367 23.416H11.4263L16.7367 8.73864L22.0471 23.416H16.7367Z" fill="#E72D2B"/>
<path d="M79.3399 0H76.9146V36.4326H79.3399V0Z" fill="#E72D2B"/>
<path fill-rule="evenodd" clip-rule="evenodd" d="M151.275 5.45157C150.548 5.4239 149.825 5.57434 149.169 5.88983V0.486084H145.877V5.86792C145.222 5.55296 144.501 5.40253 143.775 5.42966C140.418 5.42966 138.373 7.47195 138.373 12.0386C138.373 16.2854 140.216 18.5205 143.224 18.5205C144.147 18.5642 145.065 18.3535 145.877 17.9113V22.4254H149.169V17.9332C149.982 18.3756 150.902 18.5863 151.826 18.5424C154.619 18.5424 156.677 16.224 156.677 11.9685C156.677 7.41059 154.628 5.45157 151.275 5.45157ZM145.877 15.5316C145.337 15.7274 144.765 15.8181 144.191 15.7989C142.466 15.7989 141.757 14.3877 141.757 12.0781C141.757 9.55807 142.523 8.23014 144.034 8.23014C144.67 8.18246 145.307 8.30976 145.877 8.59828V15.5316ZM150.859 15.7989C150.284 15.8177 149.71 15.727 149.169 15.5316V8.58075C149.74 8.29144 150.379 8.16412 151.016 8.21261C152.527 8.21261 153.293 9.45727 153.293 11.9904C153.293 14.2869 152.352 15.777 150.859 15.777V15.7989Z" fill="#E72D2B"/>
<path fill-rule="evenodd" clip-rule="evenodd" d="M112.026 6.23687V12.4339C112.104 13.3496 112.032 14.2719 111.812 15.1642C111.626 15.7716 111.238 16.2973 110.713 16.6543L111.637 18.5914C114.263 17.842 115.279 16.6894 115.279 13.0211V8.472C115.856 8.36263 116.443 8.30978 117.03 8.31422C117.606 8.30959 118.181 8.36244 118.746 8.472V18.3329H122.047V6.23687C120.425 5.71889 118.733 5.45718 117.03 5.46115C115.332 5.45552 113.643 5.71729 112.026 6.23687Z" fill="#E72D2B"/>
<path fill-rule="evenodd" clip-rule="evenodd" d="M170.19 17.1321C169.393 16.0407 169.007 14.7028 169.1 13.3543V9.97528C169.1 8.14773 168.89 7.47281 168.399 6.81104C167.738 5.86878 166.613 5.4612 164.556 5.4612C163.126 5.45241 161.701 5.6232 160.313 5.96958L160.804 8.38878C161.66 8.2538 162.524 8.17329 163.391 8.14773C165.58 8.14773 165.829 8.47205 165.829 10.1068V10.7159C165.287 10.5674 164.728 10.4923 164.166 10.4924C160.865 10.4924 159.123 12.1008 159.123 14.7567C159.123 17.2504 160.979 18.6178 163.255 18.6178C164.084 18.6239 164.906 18.4753 165.681 18.1795C166.083 18.0031 166.466 17.7858 166.823 17.5309C167.16 17.9841 167.601 18.3481 168.11 18.5915L170.19 17.1321ZM164.223 15.9882C163.041 15.9882 162.38 15.5237 162.38 14.3141C162.38 13.1045 163.229 12.6268 164.858 12.6268C165.186 12.6185 165.514 12.6614 165.829 12.7538V13.6304C165.798 14.3115 165.857 14.9939 166.005 15.6595C165.435 15.8757 164.832 15.987 164.223 15.9882Z" fill="#E72D2B"/>
<path fill-rule="evenodd" clip-rule="evenodd" d="M135.921 13.8357C135.921 11.1317 134.262 9.45313 131.153 9.45313C130.439 9.46592 129.73 9.572 129.043 9.76868V5.66656H125.742V17.6749C127.27 18.3025 128.906 18.6255 130.558 18.6259C134.043 18.6259 135.921 16.8159 135.921 13.8357ZM129.043 15.8824V12.2711C129.516 12.1442 130.003 12.078 130.492 12.0739C132.003 12.0739 132.51 12.8146 132.51 14.0067C132.51 15.1987 132.073 16.0928 130.492 16.0928C130 16.1109 129.509 16.0396 129.043 15.8824Z" fill="#E72D2B"/>
<path fill-rule="evenodd" clip-rule="evenodd" d="M100.315 0.45953C99.7627 0.507517 99.2297 0.687895 98.7613 0.985442C98.2939 1.29236 97.9055 1.70527 97.6274 2.19066C95.6924 7.5462 93.7617 12.9047 91.8354 18.266L95.2196 19.5107L96.5067 15.7767H104.107L105.42 19.5808L108.839 18.1959L102.841 1.89702C102.608 1.43529 102.244 1.05265 101.795 0.79699C101.347 0.537942 100.831 0.420325 100.315 0.45953ZM97.5968 12.6169L100.315 4.78954L103.017 12.6388L97.5968 12.6169Z" fill="#E72D2B"/>
<path d="M91.7744 30.3671C91.7514 29.5582 91.8919 28.753 92.1876 27.9999C92.4832 27.2467 92.9279 26.5612 93.4949 25.9845C94.0648 25.4063 94.7477 24.9521 95.5011 24.6505C96.2544 24.3488 97.0618 24.2062 97.8728 24.2314C99.694 24.2314 101.153 24.7588 102.251 25.8135L101.401 27.067C100.934 26.6588 100.397 26.3381 99.8166 26.1203C99.223 25.8901 98.5926 25.7698 97.956 25.7653C97.3545 25.7376 96.7542 25.8407 96.1964 26.0677C95.6386 26.2947 95.1366 26.6401 94.7251 27.0801C93.9152 27.9772 93.4852 29.1542 93.5256 30.3627C93.4923 31.5985 93.9306 32.8005 94.7514 33.7241C95.1565 34.1786 95.6571 34.5376 96.2172 34.7755C96.7773 35.0134 97.3831 35.1243 97.991 35.1003C98.6719 35.0965 99.345 34.9549 99.9698 34.6839C100.607 34.4163 101.186 34.0262 101.673 33.5357L102.57 34.7453C101.969 35.3622 101.248 35.8492 100.451 36.1763C99.6545 36.5035 98.7994 36.6638 97.9385 36.6473C97.1147 36.6791 96.2936 36.5357 95.5292 36.2268C94.7648 35.9178 94.0745 35.4503 93.5037 34.8549C92.933 34.2587 92.4863 33.555 92.1894 32.7846C91.8926 32.0142 91.7515 31.1925 91.7744 30.3671Z" fill="#E72D2B"/>
<path d="M106.506 36.4332V29.2501H103.516V27.8389H111.138V29.2501H108.134V36.4332H106.506Z" fill="#E72D2B"/>
<path d="M113.173 39.8334V27.8382H114.701V28.6008L114.649 29.2494H114.701C114.96 28.7436 115.362 28.3258 115.857 28.0486C116.381 27.7584 116.97 27.6075 117.569 27.6103C118.092 27.5899 118.612 27.6912 119.089 27.9065C119.566 28.1217 119.987 28.4449 120.318 28.8506C121.032 29.7843 121.394 30.9409 121.338 32.1156C121.395 33.3027 121.008 34.4686 120.252 35.385C119.905 35.785 119.474 36.1029 118.99 36.3159C118.505 36.5289 117.979 36.6315 117.451 36.6166C116.917 36.6317 116.389 36.5045 115.92 36.2481C115.452 35.9917 115.06 35.6151 114.784 35.1571H114.754C114.802 35.4025 114.824 35.6522 114.819 35.9022V39.8115L113.173 39.8334ZM114.767 32.1682C114.75 32.9319 114.981 33.6805 115.424 34.3025C115.619 34.591 115.884 34.8254 116.194 34.984C116.504 35.1426 116.849 35.2203 117.197 35.2097C117.532 35.2124 117.863 35.1397 118.166 34.9971C118.469 34.8545 118.736 34.6456 118.948 34.3858C119.453 33.7542 119.707 32.9583 119.661 32.1507C119.701 31.3521 119.464 30.5644 118.992 29.9199C118.787 29.6514 118.521 29.4352 118.217 29.2889C117.912 29.1427 117.578 29.0706 117.24 29.0785C116.91 29.0744 116.582 29.142 116.28 29.2767C115.977 29.4113 115.708 29.6098 115.489 29.8586C114.968 30.5108 114.71 31.3349 114.767 32.1682Z" fill="#E72D2B"/>
<path d="M123.083 34.0874C123.065 33.5102 123.251 32.9451 123.609 32.4921C123.974 32.0517 124.461 31.7299 125.01 31.5674C125.537 31.3923 126.079 31.2632 126.63 31.1817C127.154 31.1136 127.681 31.0799 128.21 31.0809H128.648V30.91C128.648 29.6566 128.022 29.0255 126.765 29.0255C125.895 29.0417 125.052 29.3332 124.357 29.8582L123.692 28.653C124.117 28.32 124.601 28.0716 125.119 27.9211C125.694 27.7323 126.296 27.6347 126.901 27.6318C127.357 27.6036 127.814 27.6666 128.245 27.817C128.677 27.9675 129.074 28.2025 129.414 28.5083C129.722 28.8434 129.958 29.2377 130.108 29.6672C130.259 30.0967 130.32 30.5523 130.289 31.0064V36.4408H128.753V35.5643L128.801 34.885H128.77C128.506 35.3975 128.11 35.8302 127.623 36.1384C127.127 36.466 126.545 36.6384 125.951 36.6337C125.217 36.6511 124.5 36.4038 123.933 35.9368C123.657 35.7162 123.436 35.4341 123.289 35.113C123.141 34.7918 123.071 34.4406 123.083 34.0874ZM124.73 33.9515C124.729 34.1348 124.768 34.3161 124.844 34.4831C124.919 34.6501 125.03 34.7991 125.167 34.9201C125.493 35.2078 125.92 35.3544 126.354 35.3277C126.679 35.3329 127.001 35.2581 127.291 35.1098C127.581 34.9616 127.831 34.7445 128.017 34.4774C128.437 33.9395 128.664 33.2756 128.661 32.5929V32.273H128.223C125.894 32.273 124.73 32.8325 124.73 33.9515Z" fill="#E72D2B"/>
<path d="M132.164 36.4332L135.097 32.0156L132.33 27.8389H134.217L135.81 30.4685L136.082 30.9769H136.117C136.231 30.784 136.327 30.6131 136.406 30.4685L137.999 27.8389H139.882L137.119 32.0156L140.053 36.4332H138.188L136.388 33.5626L136.117 33.1243H136.082C136.009 33.2768 135.924 33.4234 135.828 33.5626L134.029 36.4332H132.164Z" fill="#E72D2B"/>
<path d="M141.616 38.2169C141.891 38.4524 142.239 38.5855 142.601 38.5938C143.29 38.5938 143.809 38.1687 144.159 37.3185L144.597 36.3324L140.968 27.8389H142.82L144.974 33.4618L145.298 34.4961H145.346C145.422 34.1517 145.518 33.8122 145.635 33.4793L147.718 27.8389H149.5L145.464 37.9803C145.254 38.5827 144.866 39.107 144.352 39.4835C143.863 39.8275 143.277 40.0084 142.68 40.0006C142.396 40.0077 142.114 39.9677 141.843 39.8823C141.629 39.8198 141.424 39.7284 141.235 39.6106L141.029 39.4923L141.616 38.2169Z" fill="#E72D2B"/>
<path d="M151.542 36.432V27.8377H155.092C155.833 27.7969 156.567 27.9967 157.185 28.4075C157.44 28.5948 157.644 28.8427 157.78 29.1289C157.915 29.415 157.977 29.7304 157.96 30.0466C157.964 30.4469 157.851 30.8398 157.636 31.1773C157.415 31.513 157.1 31.7754 156.73 31.9311C157.206 32.0291 157.633 32.2931 157.934 32.6761C158.273 33.1505 158.417 33.7375 158.335 34.3153C158.254 34.8931 157.953 35.4172 157.496 35.779C156.819 36.2339 156.012 36.4569 155.198 36.4145L151.542 36.432ZM153.188 31.4709H154.804C155.202 31.5005 155.597 31.3766 155.907 31.1247C156.034 31.0005 156.132 30.8507 156.197 30.6851C156.261 30.5196 156.289 30.3422 156.279 30.1649C156.279 29.3702 155.77 28.9743 154.751 28.9772H153.188V31.4709ZM153.188 35.2794H154.939C155.405 35.3151 155.869 35.1882 156.253 34.92C156.395 34.7966 156.508 34.6441 156.586 34.4729C156.664 34.3016 156.705 34.1156 156.705 33.9274C156.705 33.7391 156.664 33.5531 156.586 33.3819C156.508 33.2106 156.395 33.0581 156.253 32.9347C155.868 32.6698 155.405 32.5431 154.939 32.5753H153.188V35.2794Z" fill="#E72D2B"/>
<path d="M160.078 34.0875C160.06 33.5103 160.246 32.9452 160.604 32.4922C160.97 32.0526 161.457 31.7309 162.005 31.5675C162.534 31.3924 163.077 31.2633 163.629 31.1818C164.151 31.1135 164.678 31.0798 165.205 31.081H165.643V30.9101C165.643 29.6566 165.012 29.0256 163.756 29.0256C162.886 29.0424 162.043 29.3338 161.348 29.8582L160.687 28.653C161.11 28.32 161.593 28.0716 162.11 27.9211C162.685 27.7324 163.286 27.6348 163.892 27.6319C164.348 27.6029 164.805 27.6655 165.236 27.8161C165.668 27.9666 166.065 28.202 166.405 28.5084C166.713 28.8429 166.95 29.2371 167.101 29.6667C167.251 30.0964 167.312 30.5523 167.28 31.0065V36.4409H165.748V35.5644L165.8 34.8851H165.765C165.499 35.4003 165.1 35.8346 164.61 36.1429C164.114 36.4704 163.531 36.6428 162.937 36.6381C162.205 36.6522 161.492 36.4034 160.928 35.9369C160.653 35.7156 160.433 35.4334 160.285 35.1124C160.138 34.7914 160.067 34.4405 160.078 34.0875ZM161.725 33.9516C161.726 34.1347 161.766 34.3154 161.841 34.4821C161.917 34.6489 162.026 34.7981 162.162 34.9201C162.49 35.2081 162.918 35.3546 163.353 35.3277C163.678 35.333 163.999 35.2582 164.289 35.1099C164.578 34.9617 164.827 34.7445 165.012 34.4775C165.435 33.941 165.664 33.2765 165.66 32.593V32.2731H165.222C162.89 32.2731 161.725 32.8326 161.725 33.9516Z" fill="#E72D2B"/>
<path d="M170.142 36.4332V27.8389H171.788V31.345H176.131V27.8389H177.777V36.4332H176.131V32.7474H171.788V36.4332H170.142Z" fill="#E72D2B"/>
<path d="M180.751 36.4332V27.8389H182.397V31.345H186.74V27.8389H188.386V36.4332H186.74V32.7474H182.397V36.4332H180.751Z" fill="#E72D2B"/>
<path d="M190.492 36.4322L192.475 33.5791L192.865 33.0532C192.346 32.9062 191.887 32.5996 191.552 32.1767C191.153 31.6445 190.962 30.9842 191.017 30.321C191.072 29.6578 191.368 29.0378 191.849 28.5786C192.485 28.0839 193.278 27.8336 194.082 27.873H197.51V36.4322H195.864V33.3074H194.419L192.313 36.4147L190.492 36.4322ZM194.432 32.1197H195.859V28.9774H194.485C193.271 28.9774 192.665 29.4916 192.668 30.5201C192.653 30.7431 192.69 30.9666 192.775 31.1733C192.86 31.3799 192.991 31.5643 193.158 31.7122C193.52 31.9943 193.97 32.1387 194.428 32.1197H194.432Z" fill="#E72D2B"/>
<path d="M62.1931 27.4877C60.2064 29.0224 57.7589 29.8381 55.2498 29.8017C49.1995 29.8017 43.0705 25.8223 43.0705 18.2185C43.0705 10.6147 49.1995 6.63088 55.2498 6.63088C57.7586 6.59659 60.2054 7.41203 62.1931 8.94489L64.5966 2.669C61.7715 0.927188 58.5195 0.00332207 55.2016 0C44.3838 0 36.0439 8.14726 36.0439 18.2185C36.0439 28.2897 44.3619 36.4326 55.2016 36.4326C58.5256 36.4264 61.7827 35.4963 64.6097 33.746L62.2062 27.4789L62.1931 27.4877Z" fill="#E72D2B"/>
</g>
<defs>
<clipPath id="clip0">
<rect width="197.5" height="40" fill="white"/>
</clipPath>
</defs>
</svg>
