<svg width="85" height="26" viewBox="0 0 85 26" fill="none" xmlns="http://www.w3.org/2000/svg">
<path d="M11.7134 7.80404C12.7595 8.00267 13.7186 8.55318 14.4502 9.37499L10.868 13.214L7.27698 9.37499L7.59076 9.04965C7.70406 8.95669 7.81737 8.85444 7.93068 8.77078C8.04399 8.68712 8.20087 8.56628 8.3229 8.47332L8.7064 8.25952C9.4215 7.8857 10.2114 7.70381 11.0074 7.72968H11.2515H11.4868L11.7134 7.80404ZM24.1511 2.0594V23.9411C24.1511 24.4342 23.9674 24.907 23.6405 25.2557C23.3136 25.6043 22.8702 25.8002 22.4079 25.8002H1.87308C1.41075 25.8002 0.967365 25.6043 0.640453 25.2557C0.31354 24.907 0.129883 24.4342 0.129883 23.9411V2.0594C0.129883 1.56633 0.31354 1.09346 0.640453 0.744809C0.967365 0.396158 1.41075 0.200288 1.87308 0.200288H22.3905C22.6209 0.197831 22.8494 0.244104 23.0629 0.336433C23.2764 0.428761 23.4707 0.565312 23.6344 0.738192C23.7981 0.911071 23.9281 1.11685 24.0168 1.34363C24.1055 1.5704 24.1511 1.81368 24.1511 2.0594ZM20.3945 5.15481C20.1301 4.87553 19.773 4.71885 19.4009 4.71885C19.0288 4.71885 18.6717 4.87553 18.4073 5.15481L16.4288 7.2649C15.117 5.80743 13.3491 4.91432 11.4606 4.7551H10.9028C9.55673 4.74442 8.2313 5.10835 7.05739 5.81095C5.88348 6.51355 4.90169 7.53053 4.20896 8.76148C4.05165 9.04498 3.98765 9.3764 4.02713 9.70311C4.06661 10.0298 4.2073 10.3331 4.42686 10.5648L4.79293 10.9459L9.87434 16.3745C10.1373 16.6532 10.4929 16.8097 10.8636 16.8097C11.2343 16.8097 11.59 16.6532 11.8529 16.3745L15.7663 12.2008C15.7663 12.2008 15.7663 12.2008 15.7663 12.2473C15.7706 12.3309 15.7706 12.4147 15.7663 12.4983C15.7707 12.5819 15.7707 12.6657 15.7663 12.7493C15.8146 13.0906 15.8321 13.4361 15.8186 13.7811C15.8022 13.9414 15.7731 14.1 15.7315 14.2551C15.5664 14.9896 15.2553 15.6776 14.8192 16.2726C14.3831 16.8675 13.8322 17.3556 13.2038 17.7038C12.9412 17.8523 12.6671 17.9767 12.3845 18.0756L12.1492 18.1407L11.9487 18.1965H11.7657H11.4781H11.3125H10.9115C9.81742 18.2399 8.74094 17.8931 7.85224 17.2111C7.73021 17.1182 7.6169 17.0066 7.5036 16.9044C6.93952 16.3454 6.50404 15.6551 6.23106 14.8872L6.16134 14.7013C6.05889 14.4279 5.8822 14.1933 5.65392 14.0277C5.42564 13.8621 5.15618 13.773 4.88009 13.7718C4.50792 13.7718 4.15099 13.9295 3.88783 14.2101C3.62466 14.4908 3.47682 14.8714 3.47682 15.2684C3.47513 15.4135 3.49574 15.5579 3.53783 15.696C3.54743 15.7512 3.56508 15.8045 3.59012 15.854C4.2446 17.7287 5.5132 19.2875 7.16152 20.2423C8.80985 21.1971 10.7265 21.4833 12.5573 21.0482C14.3882 20.613 16.0095 19.4858 17.1216 17.8749C18.2338 16.264 18.7617 14.2782 18.6077 12.2845C18.5375 11.4194 18.3374 10.572 18.0151 9.7747L20.3945 7.2649C20.525 7.12667 20.6285 6.96229 20.6991 6.78122C20.7698 6.60016 20.8062 6.40597 20.8062 6.20986C20.8062 6.01374 20.7698 5.81956 20.6991 5.63849C20.6285 5.45742 20.525 5.29304 20.3945 5.15481ZM29.1977 12.4518C29.2003 12.9026 29.2894 13.3481 29.4593 13.7609C29.6292 14.1737 29.8763 14.5451 30.1857 14.8524C30.495 15.1597 30.8599 15.3963 31.2581 15.5477C31.6562 15.6992 32.0792 15.7623 32.501 15.7331C32.9194 15.7569 33.338 15.6895 33.7311 15.5351C34.1243 15.3807 34.4839 15.1425 34.7879 14.835C35.092 14.5275 35.3341 14.1572 35.4996 13.7467C35.6651 13.3362 35.7504 12.894 35.7504 12.4472C35.7504 12.0003 35.6651 11.5581 35.4996 11.1476C35.3341 10.7371 35.092 10.3668 34.7879 10.0593C34.4839 9.75187 34.1243 9.51367 33.7311 9.35925C33.338 9.20484 32.9194 9.13745 32.501 9.16119C32.0785 9.13201 31.6548 9.19538 31.256 9.3474C30.8573 9.49942 30.492 9.73686 30.1825 10.0451C29.8731 10.3534 29.626 10.7259 29.4567 11.1398C29.2873 11.5537 29.1992 12.0002 29.1977 12.4518ZM34.096 12.4518C34.1123 12.6864 34.083 12.922 34.01 13.144C33.937 13.366 33.8218 13.5695 33.6717 13.7418C33.5216 13.9142 33.3398 14.0517 33.1376 14.1457C32.9354 14.2397 32.7172 14.2882 32.4967 14.2882C32.2761 14.2882 32.0579 14.2397 31.8557 14.1457C31.6535 14.0517 31.4717 13.9142 31.3216 13.7418C31.1715 13.5695 31.0563 13.366 30.9833 13.144C30.9103 12.922 30.881 12.6864 30.8973 12.4518C30.881 12.2172 30.9103 11.9816 30.9833 11.7596C31.0563 11.5377 31.1715 11.3341 31.3216 11.1618C31.4717 10.9894 31.6535 10.852 31.8557 10.758C32.0579 10.6639 32.2761 10.6154 32.4967 10.6154C32.7172 10.6154 32.9354 10.6639 33.1376 10.758C33.3398 10.852 33.5216 10.9894 33.6717 11.1618C33.8218 11.3341 33.937 11.5377 34.01 11.7596C34.083 11.9816 34.1123 12.2172 34.096 12.4518ZM40.4325 15.6123H42.3239L40.45 12.3403L42.3065 9.28203H40.5633L39.1513 11.7454H38.3407V9.28203H36.6585V15.6123H38.3233V13.214H39.0903L40.4325 15.6123ZM44.5726 14.6827C44.5498 14.4272 44.4385 14.1899 44.2604 14.0172C44.0823 13.8445 43.8502 13.7488 43.6095 13.7488C43.3688 13.7488 43.1367 13.8445 42.9586 14.0172C42.7806 14.1899 42.6692 14.4272 42.6464 14.6827C42.6391 14.8668 42.6833 15.049 42.7733 15.2062C42.8633 15.3635 42.9951 15.4886 43.1519 15.5658L42.751 17.0252H43.7621L44.2937 15.7145C44.4644 15.3962 44.5629 15.0397 44.5814 14.6734L44.5726 14.6827ZM52.478 15.603H54.2212L51.5541 9.28203H49.8981L47.2833 15.6123H49.0265L49.4972 14.3853H51.9986L52.478 15.603ZM49.9853 13.0653L50.7523 11.0389L51.5541 13.0653H49.9853ZM55.7117 9.28203L55.6332 11.8104C55.5809 13.2326 55.4502 14.1715 54.7616 14.1715H54.535L54.4478 15.6402C54.6954 15.71 54.9501 15.7475 55.2061 15.7517C56.714 15.7517 57.0278 14.2273 57.1062 11.7639V10.7321H58.8494V15.6402H60.5054V9.28203H55.7117ZM67.0424 13.3628C67.0424 11.9777 66.1708 11.2992 64.7675 11.2992H63.4166V9.28203H61.7605V15.6123H64.5671C66.1098 15.6123 67.0686 14.8408 67.0686 13.3628H67.0424ZM65.3864 13.3628C65.3866 13.4897 65.3624 13.6153 65.3154 13.7319C65.2684 13.8484 65.1994 13.9535 65.1129 14.0406C65.0263 14.1277 64.924 14.195 64.8121 14.2382C64.7003 14.2815 64.5813 14.2999 64.4625 14.2923H63.4166V12.5727H64.4625C65.029 12.5727 65.3864 12.805 65.3864 13.4V13.3628ZM72.1325 15.2126C74.1546 15.0824 75.218 14.0785 75.218 12.4239C75.218 10.7693 74.1459 9.7747 72.1325 9.63526V8.98458H70.5985V9.63526C68.5939 9.80258 67.5218 10.7786 67.5218 12.4239C67.5218 14.0692 68.5939 15.0546 70.5985 15.2126V15.9098H72.1325V15.2126ZM70.5985 13.809C69.6485 13.6881 69.143 13.2605 69.143 12.4332C69.143 11.6059 69.5875 11.169 70.5985 11.0389V13.8276V13.809ZM73.5968 12.4425C73.5968 13.2698 73.1436 13.7253 72.1325 13.8368V11.0482C73.1174 11.169 73.5968 11.5966 73.5968 12.4332V12.4425ZM80.5696 15.6216H82.3128L79.698 9.29133H78.042L75.4272 15.6216H77.1704L77.641 14.3946H80.1425L80.5696 15.6216ZM78.0856 13.0746L78.8438 11.0482L79.6109 13.0746H78.0856ZM82.6702 14.7571C82.693 15.0127 82.8043 15.25 82.9824 15.4227C83.1605 15.5954 83.3926 15.6911 83.6333 15.6911C83.874 15.6911 84.106 15.5954 84.2841 15.4227C84.4622 15.25 84.5736 15.0127 84.5964 14.7571C84.5736 14.5015 84.4622 14.2642 84.2841 14.0915C84.106 13.9188 83.874 13.8231 83.6333 13.8231C83.3926 13.8231 83.1605 13.9188 82.9824 14.0915C82.8043 14.2642 82.693 14.5015 82.6702 14.7571ZM82.9926 13.3163H84.2739L84.5964 9.29133H82.6789L82.9926 13.3163Z" fill="#A1A1A6"/>
</svg>
