<svg width="24" height="24" viewBox="0 0 24 24" fill="none" xmlns="http://www.w3.org/2000/svg">
<path d="M7.62281 15.6193L18.9159 9.77678C20.3992 9.00922 19.2506 6.78898 17.767 7.55638L13.5849 9.72008C13.4515 9.78906 13.2942 9.79448 13.1565 9.73484L8.80488 7.85105C8.65365 7.78558 8.47752 7.82385 8.36708 7.94616C8.21827 8.11099 8.23978 8.36729 8.41398 8.50501L11.3762 10.8468C11.3819 10.8513 11.381 10.8602 11.3746 10.8636L6.92014 13.168L5.40519 12.9463C4.94223 12.8786 4.64815 13.427 4.96078 13.7751L6.41929 15.3992C6.72357 15.7381 7.21833 15.8285 7.62281 15.6193Z" stroke="#E72D2B" stroke-width="1.5"/>
</svg>
