<svg width="24" height="24" viewBox="0 0 24 24" fill="none" xmlns="http://www.w3.org/2000/svg">
<path fill-rule="evenodd" clip-rule="evenodd" d="M12 6.19613C10.7125 5.00046 8.91654 4.86302 7.77472 5.09256C6.24665 5.39974 5.18572 6.33257 4.59001 7.55282C4.00555 8.75005 3.87648 10.1987 4.10962 11.6049C4.36014 13.1161 5.0942 14.1602 6.18477 15.5336C6.9424 16.4055 7.87209 17.2593 8.88508 17.989C10.749 19.3316 13.2478 19.3298 15.125 18.0057C16.1647 17.2724 17.1209 16.4122 17.8844 15.5336C18.9782 14.1602 19.6399 13.1161 19.8904 11.6049C20.1235 10.1987 19.9944 8.75005 19.41 7.55282C18.8143 6.33257 17.7533 5.39974 16.2253 5.09256C15.0835 4.86302 13.2875 5.00046 12 6.19613ZM8.08065 6.60648C7.06351 6.81095 6.38396 7.40585 5.98216 8.22891C5.56912 9.07499 5.44367 10.1852 5.63727 11.353C5.84758 12.6215 6.47744 13.3919 7.35487 14.5221C7.95334 15.2108 8.73071 15.9908 9.79822 16.7708C11.1086 17.7282 12.8889 17.7254 14.2087 16.7812C15.3039 15.9978 16.1132 15.2139 16.7143 14.5221C17.595 13.3919 18.1524 12.6215 18.3627 11.353C18.5563 10.1852 18.4309 9.07499 18.0178 8.22891C17.616 7.40585 16.9365 6.81095 15.9194 6.60648C14.2937 6.27968 13.4427 7.15172 12.3229 8.07768C12.1355 8.2326 11.8645 8.23258 11.6772 8.07768C10.5573 7.15182 9.70638 6.27966 8.08065 6.60648Z" fill="#E72D2B"/>
</svg>
