<svg width="24" height="24" viewBox="0 0 24 24" fill="none" xmlns="http://www.w3.org/2000/svg">
<path d="M15.7618 10.2983C16.0646 10.0157 16.0809 9.54107 15.7983 9.23826C15.5157 8.93545 15.0411 8.91908 14.7383 9.20171L11.4787 12.2439L10.2381 11.1806C9.92362 10.911 9.45015 10.9474 9.18058 11.2619C8.91101 11.5764 8.94743 12.0499 9.26193 12.3194L11.0119 13.8194C11.302 14.068 11.7325 14.0589 12.0118 13.7983L15.7618 10.2983Z" fill="#E72D2B"/>
<path fill-rule="evenodd" clip-rule="evenodd" d="M11.9994 4C10.7238 4 9.21713 4.40161 7.97178 4.99826C7.34467 5.29871 6.75662 5.6614 6.28362 6.07223C5.81991 6.475 5.41095 6.97265 5.24023 7.55494C4.75569 9.2076 4.45676 14.9904 10.0371 19.313C11.1916 20.2073 12.8072 20.2073 13.9617 19.3131C19.5421 14.9905 19.2443 9.20775 18.7597 7.55494C18.589 6.97258 18.1799 6.47491 17.7161 6.07216C17.2429 5.66135 16.6548 5.29867 16.0275 4.99823C14.7819 4.4016 13.275 4 11.9994 4ZM6.67964 7.97696C6.73696 7.78148 6.912 7.51325 7.26725 7.2047C7.61322 6.9042 8.0791 6.61012 8.61989 6.35102C9.71034 5.82859 10.9954 5.5 11.9994 5.5C13.0034 5.5 14.2888 5.82859 15.3795 6.35105C15.9205 6.61016 16.3865 6.90425 16.7326 7.20476C17.0879 7.51333 17.263 7.78155 17.3203 7.97696C17.6751 9.187 18.0234 14.2695 13.0431 18.1272C12.4294 18.6026 11.5694 18.6026 10.9557 18.1272C5.97567 14.2696 6.32483 9.18715 6.67964 7.97696Z" fill="#E72D2B"/>
</svg>
