<svg width="24" height="18" viewBox="0 0 24 18" fill="none" xmlns="http://www.w3.org/2000/svg">
<path fill-rule="evenodd" clip-rule="evenodd" d="M21.3766 0.537441C22.4093 0.833107 23.2224 1.70433 23.4984 2.81076C24 4.81608 24 9.0001 24 9.0001C24 9.0001 24 13.1841 23.4984 15.1892C23.2224 16.2957 22.4093 17.1671 21.3766 17.4628C19.5048 18 11.9999 18 11.9999 18C11.9999 18 4.49498 18 2.62313 17.4628C1.5907 17.1671 0.777375 16.2957 0.501375 15.1892C0 13.1841 0 9.0001 0 9.0001C0 9.0001 0 4.81608 0.501375 2.81076C0.777375 1.70433 1.5907 0.833107 2.62313 0.537441C4.49498 0 11.9999 0 11.9999 0C11.9999 0 19.5048 0 21.3766 0.537441ZM15.8352 8.99891L9.59998 12.8561V5.14169L15.8352 8.99891Z" fill="#A1A1A6"/>
</svg>
