<svg width="24" height="24" viewBox="0 0 24 24" fill="none" xmlns="http://www.w3.org/2000/svg">
<path d="M9 14C9.41421 14 9.75 13.6642 9.75 13.25C9.75 12.8358 9.41421 12.5 9 12.5C8.58579 12.5 8.25 12.8358 8.25 13.25C8.25 13.6642 8.58579 14 9 14Z" fill="#E72D2B"/>
<path d="M12.75 13.25C12.75 13.6642 12.4142 14 12 14C11.5858 14 11.25 13.6642 11.25 13.25C11.25 12.8358 11.5858 12.5 12 12.5C12.4142 12.5 12.75 12.8358 12.75 13.25Z" fill="#E72D2B"/>
<path d="M15 14C15.4142 14 15.75 13.6642 15.75 13.25C15.75 12.8358 15.4142 12.5 15 12.5C14.5858 12.5 14.25 12.8358 14.25 13.25C14.25 13.6642 14.5858 14 15 14Z" fill="#E72D2B"/>
<path d="M15.75 15.75C15.75 16.1642 15.4142 16.5 15 16.5C14.5858 16.5 14.25 16.1642 14.25 15.75C14.25 15.3358 14.5858 15 15 15C15.4142 15 15.75 15.3358 15.75 15.75Z" fill="#E72D2B"/>
<path d="M12 16.5C12.4142 16.5 12.75 16.1642 12.75 15.75C12.75 15.3358 12.4142 15 12 15C11.5858 15 11.25 15.3358 11.25 15.75C11.25 16.1642 11.5858 16.5 12 16.5Z" fill="#E72D2B"/>
<path d="M9.75 15.75C9.75 16.1642 9.41421 16.5 9 16.5C8.58579 16.5 8.25 16.1642 8.25 15.75C8.25 15.3358 8.58579 15 9 15C9.41421 15 9.75 15.3358 9.75 15.75Z" fill="#E72D2B"/>
<path fill-rule="evenodd" clip-rule="evenodd" d="M9.75 4.75C9.75 4.33579 9.41421 4 9 4C8.58579 4 8.25 4.33579 8.25 4.75V5.03304C6.41532 5.27749 5 6.84846 5 8.75V16.25C5 18.3211 6.67893 20 8.75 20H15.25C17.3211 20 19 18.3211 19 16.25V8.75C19 6.84846 17.5847 5.27749 15.75 5.03304V4.75C15.75 4.33579 15.4142 4 15 4C14.5858 4 14.25 4.33579 14.25 4.75V5H9.75V4.75ZM8.25 6.55575V7.25C8.25 7.66421 8.58579 8 9 8C9.41421 8 9.75 7.66421 9.75 7.25V6.5H14.25V7.25C14.25 7.66421 14.5858 8 15 8C15.4142 8 15.75 7.66421 15.75 7.25V6.55575C16.752 6.78312 17.5 7.67921 17.5 8.75V9L6.5 9V8.75C6.5 7.67921 7.24801 6.78312 8.25 6.55575ZM6.5 10.5V16.25C6.5 17.4926 7.50736 18.5 8.75 18.5H15.25C16.4926 18.5 17.5 17.4926 17.5 16.25V10.5L6.5 10.5Z" fill="#E72D2B"/>
</svg>
