<svg width="16" height="16" viewBox="0 0 16 16" fill="none" xmlns="http://www.w3.org/2000/svg">
<circle cx="8" cy="8" r="7.25" stroke="#E72D2B" stroke-width="1.5"/>
<path d="M6.64648 11.3086C6.64648 11.2109 6.66992 11.0566 6.7168 10.8457C6.74414 10.7246 6.78516 10.5645 6.83984 10.3652L7.56055 7.66992C7.56836 7.63867 7.57422 7.60742 7.57812 7.57617C7.58594 7.54492 7.58984 7.51562 7.58984 7.48828C7.58984 7.32812 7.53906 7.22852 7.4375 7.18945C7.33594 7.15039 7.15039 7.125 6.88086 7.11328V6.79688C7.10742 6.78125 7.43555 6.75 7.86523 6.70312C8.29883 6.65234 8.60547 6.60938 8.78516 6.57422L9.30078 6.47461L8.36914 9.89062C8.29102 10.1836 8.23828 10.3867 8.21094 10.5C8.14062 10.7891 8.10547 10.9766 8.10547 11.0625C8.10547 11.1484 8.125 11.2051 8.16406 11.2324C8.20312 11.2559 8.24609 11.2676 8.29297 11.2676C8.41406 11.2676 8.56445 11.1641 8.74414 10.957C8.92383 10.75 9.08203 10.5332 9.21875 10.3066L9.48242 10.4766C9.0918 11.0508 8.79297 11.4375 8.58594 11.6367C8.24609 11.9648 7.88281 12.1289 7.49609 12.1289C7.27734 12.1289 7.08008 12.0625 6.9043 11.9297C6.73242 11.793 6.64648 11.5859 6.64648 11.3086ZM8.9668 3.79688C9.18945 3.79688 9.37891 3.875 9.53516 4.03125C9.69141 4.1875 9.76953 4.37695 9.76953 4.59961C9.76953 4.82227 9.69141 5.01367 9.53516 5.17383C9.37891 5.33008 9.18945 5.4082 8.9668 5.4082C8.74414 5.4082 8.55273 5.33008 8.39258 5.17383C8.23633 5.01367 8.1582 4.82227 8.1582 4.59961C8.1582 4.37695 8.23633 4.1875 8.39258 4.03125C8.55273 3.875 8.74414 3.79688 8.9668 3.79688Z" fill="#E72D2B"/>
</svg>
