<svg width="24" height="24" viewBox="0 0 24 24" fill="none" xmlns="http://www.w3.org/2000/svg">
<path d="M17.25 0H6.75C3 0 0 3 0 6.75V11.25V17.25C0 21 3 24 6.75 24H17.25C21 24 24 21 24 17.25V11.25V6.75C24 3 21 0 17.25 0ZM12 7.5C14.475 7.5 16.5 9.525 16.5 12C16.5 14.475 14.475 16.5 12 16.5C9.525 16.5 7.5 14.475 7.5 12C7.5 9.525 9.525 7.5 12 7.5ZM16.5 5.25C16.5 4.425 17.175 3.75 18 3.75C18.825 3.75 19.5 4.425 19.5 5.25C19.5 6.075 18.825 6.75 18 6.75C17.175 6.75 16.5 6.075 16.5 5.25Z" fill="#A1A1A6"/>
</svg>
