<svg width="57" height="26" viewBox="0 0 57 26" fill="none" xmlns="http://www.w3.org/2000/svg">
<path d="M0.392054 22.6758C0.337178 22.6775 0.28475 22.7005 0.24452 22.7403C0.20429 22.7801 0.178996 22.8342 0.17334 22.8924L0.17334 25.5666C0.175287 25.6278 0.198955 25.6859 0.239557 25.7292C0.28016 25.7725 0.334666 25.7977 0.392054 25.7998H14.171C14.2277 25.7977 14.2813 25.7721 14.3207 25.7286C14.36 25.6851 14.382 25.627 14.382 25.5666V22.8924C14.383 22.8618 14.3784 22.8312 14.3683 22.8025C14.3583 22.7738 14.343 22.7475 14.3235 22.725C14.3039 22.7026 14.2803 22.6845 14.2542 22.6718C14.228 22.659 14.1998 22.6519 14.171 22.6508L0.392054 22.6758ZM7.28155 2.21582C8.78912 2.21582 9.25779 3.36545 9.62492 4.51507L13.8274 16.7861C13.8461 16.8448 13.8437 16.9089 13.8206 16.9659C13.7975 17.0229 13.7554 17.0687 13.7024 17.0943L11.4137 18.0357C11.3866 18.0475 11.3575 18.0531 11.3283 18.0523C11.2991 18.0515 11.2703 18.0442 11.2439 18.0308C11.2174 18.0175 11.1939 17.9985 11.1747 17.9749C11.1555 17.9514 11.1411 17.9239 11.1325 17.8941L10.1561 15.0033H4.38359L3.39937 17.8941C3.38976 17.9232 3.37484 17.9499 3.35546 17.9728C3.33608 17.9957 3.31264 18.0143 3.28648 18.0275C3.26033 18.0406 3.23199 18.0481 3.2031 18.0495C3.17421 18.051 3.14534 18.0462 3.11817 18.0357L0.829482 17.061C0.801966 17.05 0.776813 17.0332 0.755526 17.0116C0.73424 16.9899 0.717256 16.964 0.705591 16.9352C0.693925 16.9064 0.687816 16.8754 0.687629 16.8441C0.687442 16.8128 0.693181 16.7817 0.704503 16.7528L4.89913 4.51507C5.28188 3.38211 5.77398 2.21582 7.28155 2.21582ZM7.28155 5.94794L5.30531 12.2292H9.25779L7.28936 5.94794H7.28155ZM25.6145 15.7698L26.6768 16.053C26.5056 16.8808 26.086 17.6266 25.4817 18.1773C24.8746 18.67 24.1274 18.9258 23.3649 18.9021C22.6284 18.938 21.8982 18.744 21.2636 18.3439C20.7073 17.9484 20.2769 17.3819 20.0295 16.7194C19.7455 15.9939 19.602 15.2147 19.6077 14.4285C19.5888 13.6242 19.7522 12.8268 20.0841 12.1043C20.3857 11.4681 20.8591 10.9428 21.4433 10.5964C22.038 10.2542 22.7047 10.0793 23.3805 10.0883C24.1011 10.0616 24.8097 10.2901 25.3958 10.7381C25.9595 11.1937 26.3615 11.8398 26.5362 12.5708L25.4973 12.829C25.3718 12.3049 25.0993 11.8341 24.7162 11.4795C24.3268 11.1852 23.8574 11.0359 23.3805 11.0546C22.8262 11.0267 22.2783 11.1904 21.8182 11.5211C21.4069 11.8305 21.1023 12.2754 20.9512 12.7874C20.5919 13.9366 20.6084 15.1817 20.9981 16.3196C21.1643 16.8264 21.49 17.2561 21.9198 17.5358C22.3292 17.8013 22.7998 17.9397 23.2789 17.9357C23.8234 17.952 24.3554 17.7599 24.7787 17.3942C25.2241 16.9713 25.5193 16.3976 25.6145 15.7698ZM28.2391 18.7271V10.2299H29.2936V17.7274H33.1992V18.7271H28.2391ZM40.0106 10.2299H41.1041V15.1616C41.1256 15.8538 41.0331 16.5446 40.8307 17.2026C40.6346 17.713 40.2895 18.1425 39.8465 18.4272C39.2755 18.7691 38.626 18.9335 37.9718 18.9021C37.3273 18.9346 36.6855 18.7943 36.105 18.4939C35.6437 18.2352 35.2837 17.81 35.0895 17.2943C34.8542 16.6124 34.748 15.8875 34.777 15.1616V10.2299H35.8706V15.1533C35.8405 15.7167 35.9067 16.2812 36.0659 16.8194C36.1843 17.1743 36.4205 17.4707 36.7299 17.6525C37.085 17.854 37.4839 17.9517 37.8859 17.9357C38.1848 17.9677 38.4867 17.934 38.7729 17.8366C39.0591 17.7391 39.3235 17.5801 39.5497 17.3692C39.9468 16.7311 40.121 15.9645 40.0418 15.2033L40.0106 10.2299ZM43.1351 18.7271V10.2299H46.1346C46.6355 10.2079 47.1353 10.2958 47.6031 10.4881C47.9687 10.6589 48.2729 10.9511 48.4701 11.3212C48.6755 11.6557 48.7866 12.046 48.7904 12.4458C48.7913 12.8092 48.6937 13.165 48.5092 13.4705C48.3032 13.8115 48.0106 14.083 47.6656 14.2536C48.108 14.3729 48.5009 14.6454 48.7826 15.0283C49.0476 15.3983 49.1854 15.8542 49.1731 16.3196C49.177 16.706 49.0968 17.0881 48.9388 17.4359C48.8067 17.7465 48.6056 18.0182 48.3529 18.2273C48.0888 18.426 47.792 18.5701 47.4781 18.6521C47.0526 18.7539 46.6174 18.8014 46.1814 18.7938L43.1351 18.7271ZM44.1974 13.7787H45.9237C46.255 13.8084 46.5885 13.7916 46.9157 13.7287C47.1567 13.6665 47.3712 13.5198 47.525 13.3122C47.665 13.0913 47.7361 12.8289 47.7281 12.5625C47.7331 12.2987 47.6681 12.0388 47.5406 11.8127C47.4144 11.5999 47.2201 11.443 46.9938 11.3712C46.595 11.2682 46.1855 11.2206 45.7752 11.2296H44.213L44.1974 13.7787ZM44.1974 17.7191H46.1814C46.4232 17.7382 46.6661 17.7382 46.9079 17.7191C47.1225 17.6812 47.3289 17.6021 47.5171 17.4859C47.6886 17.3675 47.8285 17.2039 47.9233 17.011C48.0298 16.7895 48.0834 16.5434 48.0796 16.2946C48.0875 15.9972 48.0053 15.7051 47.8452 15.4615C47.6947 15.2221 47.4712 15.0455 47.2125 14.9617C46.8304 14.8543 46.4358 14.8066 46.0408 14.8201H44.1818L44.1974 17.7191ZM21.1621 5.82298H22.7243L23.1149 6.81433H23.443L22.0448 3.35712H21.9666V3.25715V3.35712H21.8651L20.4356 6.81433H20.7715L21.1621 5.82298ZM22.5759 5.48976H21.2636L21.9042 3.86528L22.5759 5.48976ZM25.9504 6.81433H23.9351V3.35712H24.2397V6.4811H25.9504V6.81433ZM26.8252 6.81433H26.5206V3.35712H28.5437V3.73199H26.8252V4.98159H28.3875V5.31481H26.8252V6.81433ZM30.1137 3.35712V3.25715V3.35712H30.02L28.5749 6.81433H28.9108L29.3014 5.82298H30.8636L31.262 6.81433H31.5901L30.1997 3.35712H30.1137ZM29.442 5.48976L30.0747 3.86528L30.723 5.53141L29.442 5.48976ZM38.6592 4.98992C38.7729 4.91414 38.8664 4.80843 38.9307 4.68296C38.995 4.55748 39.028 4.41647 39.0264 4.27349C39.0264 3.69034 38.6436 3.35712 37.9718 3.35712H36.8314V6.81433H37.9328C38.1076 6.8317 38.2839 6.81193 38.4515 6.75616C38.6191 6.70039 38.7747 6.60974 38.9092 6.48943C38.9863 6.40149 39.0461 6.29792 39.085 6.18487C39.1239 6.07182 39.1412 5.9516 39.1357 5.83131C39.1422 5.65675 39.0996 5.48412 39.0132 5.33564C38.9269 5.18716 38.8009 5.06965 38.6514 4.99825L38.6592 4.98992ZM38.1046 4.8483H37.1438V3.73199H37.925C38.7061 3.73199 38.7061 4.18185 38.7061 4.32347C38.7033 4.40309 38.6852 4.48125 38.6529 4.55312C38.6207 4.625 38.575 4.68906 38.5186 4.74136C38.4623 4.79366 38.3964 4.83309 38.3252 4.85722C38.254 4.88134 38.179 4.88965 38.1046 4.88162V4.8483ZM37.1438 5.21485H38.0656C38.3468 5.21485 38.8467 5.29815 38.8467 5.86463C38.8336 6.00344 38.7756 6.13306 38.6827 6.23118C38.4557 6.40251 38.178 6.47954 37.9015 6.44778H37.1204L37.1438 5.21485ZM40.1277 5.86463H41.69L42.0883 6.85598H42.4242L41.0416 3.35712H40.9557L40.9167 3.26548V3.35712H40.7917L39.3935 6.81433H39.7215L40.1277 5.86463ZM41.5728 5.48976H40.2605L40.9167 3.82363L41.5728 5.48976ZM43.2757 6.81433H42.9632V3.35712H43.0648H43.1819L45.1113 6.16454V3.35712H45.4784V6.81433H45.3769H45.2519L43.2757 4.00691V6.81433ZM47.4156 5.20652H46.6892V6.81433H46.3845V3.35712H46.6892V4.88162H47.4156L48.4154 3.35712H48.7826L47.6812 5.02324L48.9075 6.81433H48.5248L47.4156 5.20652ZM21.2636 22.8258H20.545V25.325H20.8184V24.4753H21.2636C22.0448 24.4753 22.1932 24.0254 22.1932 23.6422C22.1932 23.109 21.8651 22.8091 21.2636 22.8091V22.8258ZM21.2636 24.1587H20.795V23.1257H21.2636C21.8417 23.1257 21.9198 23.4089 21.9198 23.6505C21.9198 23.8921 21.8495 24.1754 21.2636 24.1754V24.1587ZM24.2944 23.6005C24.2959 23.4933 24.2762 23.387 24.2368 23.2884C24.1973 23.1898 24.1388 23.1011 24.0652 23.0281C23.9916 22.9551 23.9044 22.8993 23.8094 22.8645C23.7143 22.8296 23.6134 22.8165 23.5133 22.8258H22.6228V25.325H22.8962V24.3836H23.4039L24.185 25.3583H24.5443L23.7632 24.3503C23.9223 24.3147 24.0641 24.2195 24.163 24.0819C24.2619 23.9444 24.3113 23.7736 24.3022 23.6005H24.2944ZM23.5211 24.0837H22.943V23.1257H23.5211C23.6461 23.1257 24.0444 23.1257 24.0444 23.6005C24.0439 23.6704 24.0295 23.7393 24.002 23.8028C23.9746 23.8662 23.9347 23.9226 23.8852 23.9684C23.8357 24.0141 23.7776 24.048 23.7148 24.0679C23.652 24.0878 23.586 24.0932 23.5211 24.0837ZM24.8568 22.8258H25.1302V25.325H24.8568V22.8258ZM27.5985 22.8258L26.6456 25.325H26.5753V25.4166L26.4581 25.3916H26.3878L25.4348 22.8924H25.7317L26.5128 24.9251L27.2939 22.8924L27.5985 22.8258ZM28.6687 22.8258L28.6218 22.6925V22.8258H28.5515L27.5517 25.325H27.8485L28.1297 24.6085H29.0749L29.3561 25.325H29.6529L28.653 22.8258H28.6687ZM28.2078 24.3503L28.6218 23.3006L29.0358 24.3503H28.2078ZM29.5748 22.8258H31.3792V23.1257H30.598V25.3916H30.3246V23.1257H29.5435L29.5748 22.8258ZM32.0431 25.0584H33.2929V25.3916H31.7307V22.8924H33.2148V23.1923H31.9963V24.0254H33.1289V24.3253H31.9963L32.0431 25.0584ZM36.105 24.0171C36.1788 23.9586 36.2381 23.8817 36.2776 23.7931C36.317 23.7045 36.3356 23.6069 36.3315 23.5089C36.3315 23.084 36.0425 22.8258 35.5504 22.8258H34.7692V25.325H35.5504C35.8018 25.3476 36.0515 25.2638 36.2456 25.0917C36.3061 25.0264 36.3527 24.9479 36.3824 24.8617C36.412 24.7755 36.424 24.6835 36.4174 24.5919C36.4243 24.4704 36.3995 24.3492 36.3457 24.2419C36.292 24.1345 36.2113 24.0452 36.1128 23.9837L36.105 24.0171ZM35.6753 23.8505H35.027V23.0924H35.5738C36.0659 23.0924 36.0659 23.3839 36.0659 23.4839C36.064 23.5357 36.0522 23.5866 36.0313 23.6335C36.0104 23.6803 35.9808 23.7221 35.9442 23.7564C35.9077 23.7907 35.8651 23.8167 35.8188 23.8329C35.7726 23.849 35.7238 23.855 35.6753 23.8505ZM35.027 24.1504H35.6441C35.8316 24.1504 36.144 24.2087 36.144 24.5836C36.1501 24.6927 36.1165 24.8001 36.0503 24.8835C35.9014 24.9917 35.722 25.0417 35.5425 25.0251H35.027V24.1504ZM37.7297 22.7925L37.6672 22.6925L37.6203 22.8258H37.5578L36.5736 25.3916H36.8861L37.1673 24.6752H38.214L38.4952 25.3916H38.7998L37.8 22.8924L37.7297 22.7925ZM37.2688 24.317L37.6672 23.3006L38.0812 24.3503L37.2688 24.317ZM40.6355 22.7925H40.9167V25.2917H40.8464V25.375L40.7917 25.3916H40.7058L39.4091 23.4506V25.3916H39.1357V22.8924H39.2294V22.8008L39.2919 22.8924H39.37L40.6667 24.8251L40.6355 22.7925ZM42.5258 24.0254L43.4163 25.3916H43.0726L42.2914 24.242H41.8384V25.3916H41.5728V22.8924H41.8462V23.9754H42.3071L43.0023 22.8924H43.3381L42.5258 24.0254ZM43.6662 22.7925H43.9162V25.2917H43.6428L43.6662 22.7925ZM46.0955 22.7925H46.3689V25.2917H46.2986V25.375L46.2595 25.3916H46.1658L44.877 23.4506V25.3916H44.5957V22.8924H44.6973V22.8008L44.7598 22.8924H44.8457L46.1424 24.8251L46.0955 22.7925ZM48.4389 23.8921H48.7123V25.1584H48.6576C48.4529 25.2642 48.2289 25.3211 48.0014 25.325C47.6783 25.325 47.3683 25.1881 47.1398 24.9443C46.9113 24.7006 46.7829 24.3701 46.7829 24.0254C46.7829 23.6807 46.9113 23.3502 47.1398 23.1065C47.3683 22.8627 47.6783 22.7258 48.0014 22.7258C48.2196 22.7237 48.4347 22.781 48.6263 22.8924H48.6732V23.234L48.517 23.1424C48.3629 23.047 48.1874 22.9981 48.0093 23.0007C47.8869 22.9939 47.7646 23.0155 47.6508 23.0641C47.5371 23.1128 47.4347 23.1873 47.3507 23.2824C47.2667 23.3775 47.2031 23.4911 47.1644 23.6151C47.1257 23.7391 47.1128 23.8706 47.1266 24.0004C47.1177 24.1712 47.1515 24.3415 47.2245 24.4939C47.2975 24.6462 47.4072 24.7751 47.5422 24.8675C47.6773 24.9598 47.8329 25.0123 47.9932 25.0195C48.1534 25.0267 48.3126 24.9884 48.4545 24.9084L48.4389 23.8921ZM34.2849 4.42344C34.4092 4.42179 34.5311 4.45968 34.635 4.53228C34.739 4.60487 34.8203 4.70886 34.8685 4.83098C34.9168 4.95309 34.9298 5.08777 34.906 5.21782C34.8821 5.34787 34.8224 5.46738 34.7346 5.56109C34.6467 5.65479 34.5346 5.71843 34.4127 5.74388C34.2908 5.76933 34.1645 5.75543 34.05 5.70396C33.9355 5.65249 33.838 5.56578 33.7699 5.45492C33.7018 5.34405 33.6663 5.21406 33.6679 5.08156C33.6699 4.90768 33.7355 4.74154 33.8508 4.61858C33.9661 4.49563 34.1219 4.4256 34.2849 4.42344Z" fill="#A1A1A6"/>
<path d="M54.141 2.09376C54.5803 2.09376 55.0086 2.20666 55.4259 2.43247C55.8431 2.65582 56.1683 2.97735 56.4015 3.39706C56.6371 3.81431 56.7549 4.24997 56.7549 4.70404C56.7549 5.15566 56.6396 5.58886 56.4089 6.00366C56.1782 6.41846 55.8554 6.74122 55.4406 6.97193C55.0258 7.2002 54.5926 7.31433 54.141 7.31433C53.6894 7.31433 53.2562 7.2002 52.8414 6.97193C52.429 6.74122 52.1075 6.41846 51.8768 6.00366C51.6461 5.58886 51.5307 5.15566 51.5307 4.70404C51.5307 4.24997 51.6473 3.81431 51.8804 3.39706C52.1161 2.97735 52.4425 2.65582 52.8598 2.43247C53.277 2.20666 53.7041 2.09376 54.141 2.09376ZM54.141 2.42143C53.7581 2.42143 53.3838 2.5196 53.0181 2.71596C52.6548 2.91231 52.3701 3.19457 52.1639 3.56273C51.9602 3.92844 51.8584 4.30888 51.8584 4.70404C51.8584 5.09921 51.959 5.47841 52.1603 5.84167C52.3615 6.20247 52.6438 6.4835 53.007 6.68477C53.3703 6.88603 53.7483 6.98666 54.141 6.98666C54.5361 6.98666 54.9141 6.88603 55.2749 6.68477C55.6382 6.4835 55.9204 6.20247 56.1217 5.84167C56.323 5.47841 56.4236 5.09921 56.4236 4.70404C56.4236 4.30888 56.3217 3.92844 56.118 3.56273C55.9143 3.19457 55.6296 2.91231 55.2639 2.71596C54.9006 2.5196 54.5263 2.42143 54.141 2.42143ZM52.7456 3.18721H54.0784C54.5275 3.18721 54.8393 3.2412 55.0135 3.3492C55.2614 3.50383 55.3854 3.71859 55.3854 3.99349C55.3854 4.16775 55.3301 4.32361 55.2197 4.46105C55.1117 4.59605 54.9473 4.69423 54.7264 4.75559L55.2307 5.676C55.3044 5.80854 55.3805 5.90794 55.459 5.97421C55.4958 6.00612 55.5486 6.02821 55.6173 6.04048V6.16565H54.7264L53.9716 4.81081H53.8023V5.53978C53.8023 5.7484 53.8293 5.88217 53.8833 5.94107C53.9397 5.99998 54.06 6.03312 54.2441 6.04048V6.16565H52.6867V6.04048C52.8389 6.04048 52.9371 6.01471 52.9813 5.96316C53.0426 5.89199 53.0733 5.75086 53.0733 5.53978V3.80204C53.0733 3.60078 53.0512 3.47315 53.007 3.41915C52.9653 3.3627 52.8782 3.32711 52.7456 3.31238V3.18721ZM53.8023 4.62305C53.8857 4.63532 53.9557 4.64146 54.0121 4.64146C54.1717 4.64146 54.3079 4.58132 54.4208 4.46105C54.5361 4.34079 54.5938 4.18002 54.5938 3.97876C54.5938 3.77259 54.5398 3.61673 54.4318 3.51119C54.3263 3.4032 54.1631 3.3492 53.9422 3.3492H53.8023V4.62305Z" fill="#A1A1A6"/>
</svg>
