<svg width="97" height="32" viewBox="0 0 97 32" fill="none" xmlns="http://www.w3.org/2000/svg">
<path d="M5.45508 25.5498H2.41455L2.05273 26.3877C1.93424 26.667 1.875 26.8976 1.875 27.0796C1.875 27.3208 1.97233 27.4985 2.16699 27.6128C2.28125 27.6805 2.56266 27.7313 3.01123 27.7651V28H0.148438V27.7651C0.457357 27.7186 0.711263 27.5916 0.910156 27.3843C1.10905 27.1727 1.35449 26.7389 1.64648 26.083L4.7251 19.2148H4.8457L7.94971 26.2734C8.24593 26.9421 8.48926 27.3631 8.67969 27.5366C8.82357 27.6678 9.02669 27.744 9.28906 27.7651V28H5.125V27.7651H5.29639C5.6307 27.7651 5.86556 27.7186 6.00098 27.6255C6.09408 27.5578 6.14062 27.4604 6.14062 27.3335C6.14062 27.2573 6.12793 27.179 6.10254 27.0986C6.09408 27.0605 6.0306 26.9019 5.91211 26.6226L5.45508 25.5498ZM5.23926 25.0801L3.95703 22.1157L2.63672 25.0801H5.23926ZM13.1167 28V27.7651C13.3283 27.7609 13.5018 27.7101 13.6372 27.6128C13.7769 27.5112 13.8467 27.2869 13.8467 26.9399V22.4648H12.1709V25.061C12.1709 25.9963 12.1243 26.6416 12.0312 26.9971C11.9382 27.3525 11.7583 27.6255 11.4917 27.8159C11.2251 28.0063 10.9416 28.1016 10.6411 28.1016C10.3026 28.1016 10.0296 28 9.82227 27.7969C9.61914 27.5895 9.51758 27.3525 9.51758 27.0859C9.51758 26.8278 9.59163 26.6183 9.73975 26.4575C9.89209 26.2925 10.0868 26.21 10.3237 26.21C10.7765 26.21 11.0029 26.485 11.0029 27.0352C11.0029 27.2848 11.0516 27.4097 11.1489 27.4097C11.3351 27.4097 11.479 27.2552 11.5806 26.9463C11.6821 26.6374 11.7329 26.009 11.7329 25.061V23.3345C11.7329 22.9451 11.68 22.6785 11.5742 22.5347C11.4684 22.3908 11.2865 22.3125 11.0283 22.2998V22.0649H16.2588V22.2998C15.8356 22.3083 15.624 22.5749 15.624 23.0996V26.9146C15.624 27.2065 15.6685 27.4202 15.7573 27.5557C15.8462 27.6868 16.0133 27.7567 16.2588 27.7651V28H13.1167ZM17.23 28V27.7651C17.4754 27.7313 17.6405 27.6509 17.7251 27.5239C17.814 27.3927 17.8584 27.1536 17.8584 26.8066V23.2202C17.8584 22.8986 17.8118 22.6743 17.7188 22.5474C17.6299 22.4204 17.467 22.3379 17.23 22.2998V22.0649H20.2642V22.2998C20.0103 22.3379 19.841 22.4268 19.7563 22.5664C19.6759 22.7018 19.6357 22.9494 19.6357 23.3091V24.7246H20.0928C21.1253 24.7246 21.904 24.8727 22.4287 25.1689C22.9535 25.4609 23.2158 25.8672 23.2158 26.3877C23.2158 26.8786 22.9831 27.27 22.5176 27.562C22.0521 27.854 21.3623 28 20.4482 28H17.23ZM19.6357 25.1245V26.9717C19.6357 27.2594 19.6823 27.4372 19.7754 27.5049C19.8727 27.5726 19.9891 27.6064 20.1245 27.6064C20.4546 27.6064 20.7402 27.4943 20.9814 27.27C21.2269 27.0415 21.3496 26.7347 21.3496 26.3496C21.3496 25.5329 20.7783 25.1245 19.6357 25.1245ZM26.5801 30.7803V30.5454C26.8424 30.5369 27.016 30.4777 27.1006 30.3677C27.1895 30.2619 27.2339 29.9762 27.2339 29.5107V27.6636C26.9165 28.0063 26.5801 28.1777 26.2246 28.1777C25.5729 28.1777 25.063 27.8773 24.6948 27.2764C24.3267 26.6712 24.1426 25.9243 24.1426 25.0356C24.1426 24.1343 24.3372 23.3853 24.7266 22.7886C25.1201 22.1877 25.6152 21.8872 26.2119 21.8872C26.6139 21.8872 26.9546 22.0649 27.2339 22.4204V20.624C27.2339 20.3151 27.2043 20.076 27.145 19.9067C27.0858 19.7375 26.8975 19.6444 26.5801 19.6274V19.3926H29.0112V22.4204C29.2863 22.0649 29.6164 21.8872 30.0015 21.8872C30.5812 21.8872 31.0763 22.175 31.4868 22.7505C31.8973 23.326 32.1025 24.0877 32.1025 25.0356C32.1025 25.992 31.9015 26.7559 31.4995 27.3271C31.0975 27.8942 30.6045 28.1777 30.0205 28.1777C29.6735 28.1777 29.3371 28.0063 29.0112 27.6636V29.5107C29.0112 29.917 29.0472 30.1878 29.1191 30.3232C29.1953 30.4629 29.3752 30.5369 29.6587 30.5454V30.7803H26.5801ZM27.2339 27.1431V22.9346C27.1323 22.7399 26.9906 22.6426 26.8086 22.6426C26.2161 22.6426 25.9199 23.491 25.9199 25.188C25.9199 26.7114 26.2098 27.4731 26.7896 27.4731C26.9546 27.4731 27.1027 27.3631 27.2339 27.1431ZM29.0112 22.9346V27.1431C29.1297 27.3631 29.2821 27.4731 29.4683 27.4731C30.0396 27.4731 30.3252 26.6628 30.3252 25.042C30.3252 23.4424 30.0205 22.6426 29.4111 22.6426C29.2249 22.6426 29.0916 22.7399 29.0112 22.9346ZM36.3364 27.124C35.6128 27.763 34.9632 28.0825 34.3877 28.0825C34.0492 28.0825 33.7677 27.9725 33.5435 27.7524C33.3192 27.5282 33.207 27.2489 33.207 26.9146C33.207 26.4618 33.4017 26.0555 33.791 25.6958C34.1803 25.3319 35.0288 24.8494 36.3364 24.2485V23.6519C36.3364 23.2033 36.311 22.9219 36.2603 22.8076C36.2137 22.6891 36.1227 22.5876 35.9873 22.5029C35.8519 22.4141 35.6995 22.3696 35.5303 22.3696C35.2552 22.3696 35.0288 22.431 34.8511 22.5537C34.741 22.6299 34.686 22.7188 34.686 22.8203C34.686 22.9092 34.7453 23.0192 34.8638 23.1504C35.0246 23.3324 35.105 23.508 35.105 23.6772C35.105 23.8846 35.0267 24.0623 34.8701 24.2104C34.7178 24.3543 34.5168 24.4263 34.2671 24.4263C34.0005 24.4263 33.7762 24.3459 33.5942 24.1851C33.4165 24.0243 33.3276 23.8359 33.3276 23.6201C33.3276 23.3154 33.4482 23.0256 33.6895 22.7505C33.9307 22.4712 34.2671 22.2575 34.6987 22.1094C35.1304 21.9613 35.5789 21.8872 36.0444 21.8872C36.6073 21.8872 37.0516 22.0078 37.3774 22.249C37.7075 22.486 37.9212 22.7441 38.0186 23.0234C38.0778 23.2012 38.1074 23.6095 38.1074 24.2485V26.5527C38.1074 26.8236 38.118 26.995 38.1392 27.0669C38.1603 27.1346 38.1921 27.1854 38.2344 27.2192C38.2767 27.2531 38.3254 27.27 38.3804 27.27C38.4904 27.27 38.6025 27.1917 38.7168 27.0352L38.9072 27.1875C38.6956 27.5007 38.4756 27.7292 38.2471 27.873C38.0228 28.0127 37.7668 28.0825 37.479 28.0825C37.1405 28.0825 36.876 28.0042 36.6855 27.8477C36.4951 27.6868 36.3787 27.4456 36.3364 27.124ZM36.3364 26.6606V24.6738C35.8244 24.9743 35.4435 25.2959 35.1938 25.6387C35.0288 25.8672 34.9463 26.0978 34.9463 26.3306C34.9463 26.5252 35.0161 26.6966 35.1558 26.8447C35.2616 26.959 35.4097 27.0161 35.6001 27.0161C35.8117 27.0161 36.0571 26.8976 36.3364 26.6606ZM46.3911 25.6704H42.6904V24.3564H46.3911V25.6704ZM53.6274 28V27.7651C53.839 27.7609 54.0125 27.7101 54.1479 27.6128C54.2876 27.5112 54.3574 27.2869 54.3574 26.9399V22.4648H52.6816V25.061C52.6816 25.9963 52.6351 26.6416 52.542 26.9971C52.4489 27.3525 52.269 27.6255 52.0024 27.8159C51.7358 28.0063 51.4523 28.1016 51.1519 28.1016C50.8133 28.1016 50.5404 28 50.333 27.7969C50.1299 27.5895 50.0283 27.3525 50.0283 27.0859C50.0283 26.8278 50.1024 26.6183 50.2505 26.4575C50.4028 26.2925 50.5975 26.21 50.8345 26.21C51.2873 26.21 51.5137 26.485 51.5137 27.0352C51.5137 27.2848 51.5623 27.4097 51.6597 27.4097C51.8459 27.4097 51.9897 27.2552 52.0913 26.9463C52.1929 26.6374 52.2437 26.009 52.2437 25.061V23.3345C52.2437 22.9451 52.1908 22.6785 52.085 22.5347C51.9792 22.3908 51.7972 22.3125 51.5391 22.2998V22.0649H56.7695V22.2998C56.3464 22.3083 56.1348 22.5749 56.1348 23.0996V26.9146C56.1348 27.2065 56.1792 27.4202 56.2681 27.5557C56.3569 27.6868 56.5241 27.7567 56.7695 27.7651V28H53.6274ZM61.27 28V27.7651C61.6509 27.7651 61.8413 27.4816 61.8413 26.9146V24.0073L60.1401 26.9146C60.1444 27.4689 60.3369 27.7524 60.7178 27.7651V28H57.6963V27.7651C57.9375 27.7651 58.1089 27.6974 58.2104 27.562C58.312 27.4266 58.3628 27.1896 58.3628 26.8511V23.1885C58.3628 22.596 58.1406 22.2998 57.6963 22.2998V22.0649H60.7178V22.2998C60.4977 22.3083 60.3454 22.3717 60.2607 22.4902C60.1803 22.6087 60.1401 22.8415 60.1401 23.1885V26.083L61.8413 23.1377C61.8371 22.8245 61.7905 22.6066 61.7017 22.4839C61.6128 22.3612 61.4689 22.2998 61.27 22.2998V22.0649H64.2915V22.2998C64.063 22.304 63.8937 22.3612 63.7837 22.4712C63.6737 22.5812 63.6187 22.7928 63.6187 23.106V26.8828C63.6187 27.234 63.6673 27.4689 63.7646 27.5874C63.8662 27.7059 64.0418 27.7651 64.2915 27.7651V28H61.27ZM67.9097 24.8071C68.646 24.9933 69.1136 25.2324 69.3125 25.5244C69.5114 25.8122 69.6108 26.1147 69.6108 26.4321C69.6108 26.923 69.4035 27.3377 68.9888 27.6763C68.5741 28.0106 67.9795 28.1777 67.2051 28.1777C66.1471 28.1777 65.3833 27.7673 64.9136 26.9463L65.1104 26.832C65.597 27.3102 66.0921 27.5493 66.5957 27.5493C66.9723 27.5493 67.2728 27.4351 67.4971 27.2065C67.7214 26.9738 67.8335 26.6628 67.8335 26.2734C67.8335 25.5371 67.3955 25.1436 66.5195 25.0928V24.6929C67.2855 24.6929 67.6685 24.3014 67.6685 23.5186C67.6685 23.1546 67.5796 22.8669 67.4019 22.6553C67.2284 22.4437 66.9914 22.3379 66.6909 22.3379C66.0519 22.3379 65.6436 22.8055 65.4658 23.7407H65.2246L65.3135 21.8872H65.5547C65.6266 22.0565 65.7155 22.1411 65.8213 22.1411C65.8636 22.1411 65.9673 22.12 66.1323 22.0776C66.5936 21.9507 66.9956 21.8872 67.3384 21.8872C67.9181 21.8872 68.39 22.0205 68.7539 22.2871C69.1221 22.5537 69.3062 22.9134 69.3062 23.3662C69.3062 24.0898 68.8407 24.5701 67.9097 24.8071ZM73.9907 28V27.7651C74.3716 27.7651 74.562 27.4816 74.562 26.9146V24.0073L72.8608 26.9146C72.8651 27.4689 73.0576 27.7524 73.4385 27.7651V28H70.417V27.7651C70.6582 27.7651 70.8296 27.6974 70.9312 27.562C71.0327 27.4266 71.0835 27.1896 71.0835 26.8511V23.1885C71.0835 22.596 70.8613 22.2998 70.417 22.2998V22.0649H73.4385V22.2998C73.2184 22.3083 73.0661 22.3717 72.9814 22.4902C72.901 22.6087 72.8608 22.8415 72.8608 23.1885V26.083L74.562 23.1377C74.5578 22.8245 74.5112 22.6066 74.4224 22.4839C74.3335 22.3612 74.1896 22.2998 73.9907 22.2998V22.0649H77.0122V22.2998C76.7837 22.304 76.6144 22.3612 76.5044 22.4712C76.3944 22.5812 76.3394 22.7928 76.3394 23.106V26.8828C76.3394 27.234 76.388 27.4689 76.4854 27.5874C76.5869 27.7059 76.7625 27.7651 77.0122 27.7651V28H73.9907ZM77.9072 28V27.7651C78.1527 27.7651 78.3241 27.7038 78.4214 27.5811C78.5229 27.4541 78.5737 27.215 78.5737 26.8638V23.2202C78.5737 22.8478 78.5251 22.6024 78.4277 22.4839C78.3304 22.3612 78.1569 22.2998 77.9072 22.2998V22.0649H80.9287V22.2998C80.7171 22.3083 80.5669 22.3633 80.478 22.4648C80.3934 22.5664 80.3511 22.797 80.3511 23.1567V24.7246H82.0522V23.1567C82.0522 22.8605 82.0205 22.6447 81.957 22.5093C81.8936 22.3696 81.7349 22.2998 81.481 22.2998V22.0649H84.4961V22.2998C84.2507 22.2998 84.0771 22.3612 83.9756 22.4839C83.8783 22.6024 83.8296 22.8034 83.8296 23.0869V26.8638C83.8296 27.2362 83.8783 27.4774 83.9756 27.5874C84.0729 27.6974 84.2464 27.7567 84.4961 27.7651V28H81.481V27.7651C81.6925 27.7609 81.8407 27.7122 81.9253 27.6191C82.0099 27.5218 82.0522 27.2848 82.0522 26.9082V25.1245H80.3511V26.8638C80.3511 27.2404 80.3934 27.4858 80.478 27.6001C80.5669 27.7101 80.7171 27.7651 80.9287 27.7651V28H77.9072ZM85.4102 27.7651C85.6556 27.7482 85.827 27.6847 85.9243 27.5747C86.0216 27.4604 86.0703 27.2362 86.0703 26.9019V23.1313C86.0703 22.8309 86.0238 22.6235 85.9307 22.5093C85.8418 22.3908 85.6683 22.321 85.4102 22.2998V22.0649H90.6279V23.6138H90.3931C90.2957 23.1313 90.1624 22.8203 89.9932 22.6807C89.8239 22.5368 89.5002 22.4648 89.022 22.4648H87.8477V26.9399C87.8477 27.2362 87.8963 27.4456 87.9937 27.5684C88.091 27.6911 88.2878 27.7567 88.584 27.7651V28H85.4102V27.7651Z" fill="#A1A1A6"/>
<path d="M5.45508 9.5498H2.41455L2.05273 10.3877C1.93424 10.667 1.875 10.8976 1.875 11.0796C1.875 11.3208 1.97233 11.4985 2.16699 11.6128C2.28125 11.6805 2.56266 11.7313 3.01123 11.7651V12H0.148438V11.7651C0.457357 11.7186 0.711263 11.5916 0.910156 11.3843C1.10905 11.1727 1.35449 10.7389 1.64648 10.083L4.7251 3.21484H4.8457L7.94971 10.2734C8.24593 10.9421 8.48926 11.3631 8.67969 11.5366C8.82357 11.6678 9.02669 11.744 9.28906 11.7651V12H5.125V11.7651H5.29639C5.6307 11.7651 5.86556 11.7186 6.00098 11.6255C6.09408 11.5578 6.14062 11.4604 6.14062 11.3335C6.14062 11.2573 6.12793 11.179 6.10254 11.0986C6.09408 11.0605 6.0306 10.9019 5.91211 10.6226L5.45508 9.5498ZM5.23926 9.08008L3.95703 6.11572L2.63672 9.08008H5.23926ZM13.1167 12V11.7651C13.3283 11.7609 13.5018 11.7101 13.6372 11.6128C13.7769 11.5112 13.8467 11.2869 13.8467 10.9399V6.46484H12.1709V9.06104C12.1709 9.99626 12.1243 10.6416 12.0312 10.9971C11.9382 11.3525 11.7583 11.6255 11.4917 11.8159C11.2251 12.0063 10.9416 12.1016 10.6411 12.1016C10.3026 12.1016 10.0296 12 9.82227 11.7969C9.61914 11.5895 9.51758 11.3525 9.51758 11.0859C9.51758 10.8278 9.59163 10.6183 9.73975 10.4575C9.89209 10.2925 10.0868 10.21 10.3237 10.21C10.7765 10.21 11.0029 10.485 11.0029 11.0352C11.0029 11.2848 11.0516 11.4097 11.1489 11.4097C11.3351 11.4097 11.479 11.2552 11.5806 10.9463C11.6821 10.6374 11.7329 10.009 11.7329 9.06104V7.33447C11.7329 6.94515 11.68 6.67855 11.5742 6.53467C11.4684 6.39079 11.2865 6.3125 11.0283 6.2998V6.06494H16.2588V6.2998C15.8356 6.30827 15.624 6.57487 15.624 7.09961V10.9146C15.624 11.2065 15.6685 11.4202 15.7573 11.5557C15.8462 11.6868 16.0133 11.7567 16.2588 11.7651V12H13.1167ZM17.23 12V11.7651C17.4754 11.7313 17.6405 11.6509 17.7251 11.5239C17.814 11.3927 17.8584 11.1536 17.8584 10.8066V7.22021C17.8584 6.8986 17.8118 6.67432 17.7188 6.54736C17.6299 6.42041 17.467 6.33789 17.23 6.2998V6.06494H20.2642V6.2998C20.0103 6.33789 19.841 6.42676 19.7563 6.56641C19.6759 6.70182 19.6357 6.94938 19.6357 7.30908V8.72461H20.0928C21.1253 8.72461 21.904 8.87272 22.4287 9.16895C22.9535 9.46094 23.2158 9.86719 23.2158 10.3877C23.2158 10.8786 22.9831 11.27 22.5176 11.562C22.0521 11.854 21.3623 12 20.4482 12H17.23ZM19.6357 9.12451V10.9717C19.6357 11.2594 19.6823 11.4372 19.7754 11.5049C19.8727 11.5726 19.9891 11.6064 20.1245 11.6064C20.4546 11.6064 20.7402 11.4943 20.9814 11.27C21.2269 11.0415 21.3496 10.7347 21.3496 10.3496C21.3496 9.53288 20.7783 9.12451 19.6357 9.12451ZM26.5801 14.7803V14.5454C26.8424 14.5369 27.016 14.4777 27.1006 14.3677C27.1895 14.2619 27.2339 13.9762 27.2339 13.5107V11.6636C26.9165 12.0063 26.5801 12.1777 26.2246 12.1777C25.5729 12.1777 25.063 11.8773 24.6948 11.2764C24.3267 10.6712 24.1426 9.92432 24.1426 9.03564C24.1426 8.13428 24.3372 7.38525 24.7266 6.78857C25.1201 6.18766 25.6152 5.88721 26.2119 5.88721C26.6139 5.88721 26.9546 6.06494 27.2339 6.42041V4.62402C27.2339 4.3151 27.2043 4.07601 27.145 3.90674C27.0858 3.73747 26.8975 3.64437 26.5801 3.62744V3.39258H29.0112V6.42041C29.2863 6.06494 29.6164 5.88721 30.0015 5.88721C30.5812 5.88721 31.0763 6.17497 31.4868 6.75049C31.8973 7.32601 32.1025 8.08773 32.1025 9.03564C32.1025 9.99202 31.9015 10.7559 31.4995 11.3271C31.0975 11.8942 30.6045 12.1777 30.0205 12.1777C29.6735 12.1777 29.3371 12.0063 29.0112 11.6636V13.5107C29.0112 13.917 29.0472 14.1878 29.1191 14.3232C29.1953 14.4629 29.3752 14.5369 29.6587 14.5454V14.7803H26.5801ZM27.2339 11.1431V6.93457C27.1323 6.73991 26.9906 6.64258 26.8086 6.64258C26.2161 6.64258 25.9199 7.49105 25.9199 9.18799C25.9199 10.7114 26.2098 11.4731 26.7896 11.4731C26.9546 11.4731 27.1027 11.3631 27.2339 11.1431ZM29.0112 6.93457V11.1431C29.1297 11.3631 29.2821 11.4731 29.4683 11.4731C30.0396 11.4731 30.3252 10.6628 30.3252 9.04199C30.3252 7.44238 30.0205 6.64258 29.4111 6.64258C29.2249 6.64258 29.0916 6.73991 29.0112 6.93457ZM36.3364 11.124C35.6128 11.763 34.9632 12.0825 34.3877 12.0825C34.0492 12.0825 33.7677 11.9725 33.5435 11.7524C33.3192 11.5282 33.207 11.2489 33.207 10.9146C33.207 10.4618 33.4017 10.0555 33.791 9.6958C34.1803 9.33187 35.0288 8.84945 36.3364 8.24854V7.65186C36.3364 7.20329 36.311 6.92188 36.2603 6.80762C36.2137 6.68913 36.1227 6.58757 35.9873 6.50293C35.8519 6.41406 35.6995 6.36963 35.5303 6.36963C35.2552 6.36963 35.0288 6.43099 34.8511 6.55371C34.741 6.62988 34.686 6.71875 34.686 6.82031C34.686 6.90918 34.7453 7.01921 34.8638 7.15039C35.0246 7.33236 35.105 7.50798 35.105 7.67725C35.105 7.8846 35.0267 8.06234 34.8701 8.21045C34.7178 8.35433 34.5168 8.42627 34.2671 8.42627C34.0005 8.42627 33.7762 8.34587 33.5942 8.18506C33.4165 8.02425 33.3276 7.83594 33.3276 7.62012C33.3276 7.31543 33.4482 7.02555 33.6895 6.75049C33.9307 6.47119 34.2671 6.25749 34.6987 6.10938C35.1304 5.96126 35.5789 5.88721 36.0444 5.88721C36.6073 5.88721 37.0516 6.00781 37.3774 6.24902C37.7075 6.486 37.9212 6.74414 38.0186 7.02344C38.0778 7.20117 38.1074 7.60954 38.1074 8.24854V10.5527C38.1074 10.8236 38.118 10.995 38.1392 11.0669C38.1603 11.1346 38.1921 11.1854 38.2344 11.2192C38.2767 11.2531 38.3254 11.27 38.3804 11.27C38.4904 11.27 38.6025 11.1917 38.7168 11.0352L38.9072 11.1875C38.6956 11.5007 38.4756 11.7292 38.2471 11.873C38.0228 12.0127 37.7668 12.0825 37.479 12.0825C37.1405 12.0825 36.876 12.0042 36.6855 11.8477C36.4951 11.6868 36.3787 11.4456 36.3364 11.124ZM36.3364 10.6606V8.67383C35.8244 8.97428 35.4435 9.2959 35.1938 9.63867C35.0288 9.86719 34.9463 10.0978 34.9463 10.3306C34.9463 10.5252 35.0161 10.6966 35.1558 10.8447C35.2616 10.959 35.4097 11.0161 35.6001 11.0161C35.8117 11.0161 36.0571 10.8976 36.3364 10.6606ZM46.3911 9.67041H42.6904V8.35645H46.3911V9.67041ZM53.6274 12V11.7651C53.839 11.7609 54.0125 11.7101 54.1479 11.6128C54.2876 11.5112 54.3574 11.2869 54.3574 10.9399V6.46484H52.6816V9.06104C52.6816 9.99626 52.6351 10.6416 52.542 10.9971C52.4489 11.3525 52.269 11.6255 52.0024 11.8159C51.7358 12.0063 51.4523 12.1016 51.1519 12.1016C50.8133 12.1016 50.5404 12 50.333 11.7969C50.1299 11.5895 50.0283 11.3525 50.0283 11.0859C50.0283 10.8278 50.1024 10.6183 50.2505 10.4575C50.4028 10.2925 50.5975 10.21 50.8345 10.21C51.2873 10.21 51.5137 10.485 51.5137 11.0352C51.5137 11.2848 51.5623 11.4097 51.6597 11.4097C51.8459 11.4097 51.9897 11.2552 52.0913 10.9463C52.1929 10.6374 52.2437 10.009 52.2437 9.06104V7.33447C52.2437 6.94515 52.1908 6.67855 52.085 6.53467C51.9792 6.39079 51.7972 6.3125 51.5391 6.2998V6.06494H56.7695V6.2998C56.3464 6.30827 56.1348 6.57487 56.1348 7.09961V10.9146C56.1348 11.2065 56.1792 11.4202 56.2681 11.5557C56.3569 11.6868 56.5241 11.7567 56.7695 11.7651V12H53.6274ZM59.8332 3.18945C60.1082 3.18945 60.341 3.28678 60.5314 3.48145C60.7218 3.67188 60.8171 3.90251 60.8171 4.17334C60.8171 4.44417 60.7197 4.6748 60.5251 4.86523C60.3346 5.05566 60.104 5.15088 59.8332 5.15088C59.5623 5.15088 59.3317 5.05566 59.1413 4.86523C58.9508 4.6748 58.8556 4.44417 58.8556 4.17334C58.8556 3.90251 58.9508 3.67188 59.1413 3.48145C59.3317 3.28678 59.5623 3.18945 59.8332 3.18945ZM60.7218 6.06494V10.7686C60.7218 11.1875 60.7705 11.4562 60.8678 11.5747C60.9652 11.689 61.1556 11.7546 61.4391 11.7715V12H58.2336V11.7715C58.4959 11.763 58.6906 11.6868 58.8175 11.543C58.9022 11.4456 58.9445 11.1875 58.9445 10.7686V7.30273C58.9445 6.88379 58.8958 6.61719 58.7985 6.50293C58.7012 6.38444 58.5129 6.31673 58.2336 6.2998V6.06494H60.7218ZM65.4676 8.80713C66.2039 8.99333 66.6715 9.23242 66.8704 9.52441C67.0693 9.81217 67.1688 10.1147 67.1688 10.4321C67.1688 10.923 66.9614 11.3377 66.5467 11.6763C66.132 12.0106 65.5374 12.1777 64.763 12.1777C63.7051 12.1777 62.9412 11.7673 62.4715 10.9463L62.6683 10.832C63.1549 11.3102 63.6501 11.5493 64.1536 11.5493C64.5303 11.5493 64.8307 11.4351 65.055 11.2065C65.2793 10.9738 65.3914 10.6628 65.3914 10.2734C65.3914 9.53711 64.9534 9.14355 64.0775 9.09277V8.69287C64.8434 8.69287 65.2264 8.30143 65.2264 7.51855C65.2264 7.15462 65.1375 6.86686 64.9598 6.65527C64.7863 6.44368 64.5493 6.33789 64.2488 6.33789C63.6099 6.33789 63.2015 6.8055 63.0238 7.74072H62.7825L62.8714 5.88721H63.1126C63.1846 6.05648 63.2734 6.14111 63.3792 6.14111C63.4215 6.14111 63.5252 6.11995 63.6903 6.07764C64.1515 5.95068 64.5535 5.88721 64.8963 5.88721C65.4761 5.88721 65.9479 6.02051 66.3118 6.28711C66.68 6.55371 66.8641 6.91341 66.8641 7.36621C66.8641 8.08984 66.3986 8.57015 65.4676 8.80713ZM72.2636 12V11.7651C72.6445 11.7651 72.8349 11.4816 72.8349 10.9146V8.00732L71.1338 10.9146C71.138 11.4689 71.3305 11.7524 71.7114 11.7651V12H68.6899V11.7651C68.9311 11.7651 69.1025 11.6974 69.2041 11.562C69.3056 11.4266 69.3564 11.1896 69.3564 10.8511V7.18848C69.3564 6.59603 69.1343 6.2998 68.6899 6.2998V6.06494H71.7114V6.2998C71.4914 6.30827 71.339 6.37174 71.2544 6.49023C71.174 6.60872 71.1338 6.84147 71.1338 7.18848V10.083L72.8349 7.1377C72.8307 6.82454 72.7842 6.60661 72.6953 6.48389C72.6064 6.36117 72.4625 6.2998 72.2636 6.2998V6.06494H75.2851V6.2998C75.0566 6.30404 74.8873 6.36117 74.7773 6.47119C74.6673 6.58122 74.6123 6.79281 74.6123 7.10596V10.8828C74.6123 11.234 74.6609 11.4689 74.7583 11.5874C74.8598 11.7059 75.0355 11.7651 75.2851 11.7651V12H72.2636ZM76.8952 12V11.7651C77.1406 11.7651 77.312 11.7038 77.4093 11.5811C77.5109 11.4541 77.5617 11.215 77.5617 10.8638V7.22021C77.5617 6.84782 77.513 6.60238 77.4157 6.48389C77.3183 6.36117 77.1448 6.2998 76.8952 6.2998V6.06494H79.9166V6.2998C79.7051 6.30827 79.5548 6.36328 79.466 6.46484C79.3813 6.56641 79.339 6.79704 79.339 7.15674V8.72461H81.0402V7.15674C81.0402 6.86051 81.0084 6.64469 80.945 6.50928C80.8815 6.36963 80.7228 6.2998 80.4689 6.2998V6.06494H83.484V6.2998C83.2386 6.2998 83.0651 6.36117 82.9635 6.48389C82.8662 6.60238 82.8175 6.80339 82.8175 7.08691V10.8638C82.8175 11.2362 82.8662 11.4774 82.9635 11.5874C83.0608 11.6974 83.2343 11.7567 83.484 11.7651V12H80.4689V11.7651C80.6805 11.7609 80.8286 11.7122 80.9132 11.6191C80.9979 11.5218 81.0402 11.2848 81.0402 10.9082V9.12451H79.339V10.8638C79.339 11.2404 79.3813 11.4858 79.466 11.6001C79.5548 11.7101 79.7051 11.7651 79.9166 11.7651V12H76.8952ZM85.1131 11.7651C85.3585 11.7482 85.5299 11.6847 85.6272 11.5747C85.7246 11.4604 85.7732 11.2362 85.7732 10.9019V7.13135C85.7732 6.83089 85.7267 6.62354 85.6336 6.50928C85.5447 6.39079 85.3712 6.32096 85.1131 6.2998V6.06494H90.3309V7.61377H90.096C89.9987 7.13135 89.8654 6.82031 89.6961 6.68066C89.5268 6.53678 89.2031 6.46484 88.7249 6.46484H87.5506V10.9399C87.5506 11.2362 87.5992 11.4456 87.6966 11.5684C87.7939 11.6911 87.9907 11.7567 88.2869 11.7651V12H85.1131V11.7651Z" fill="#A1A1A6"/>
<path d="M93.659 19.0986C94.0984 19.0986 94.5267 19.2115 94.9439 19.4374C95.3612 19.6607 95.6864 19.9822 95.9196 20.4019C96.1552 20.8192 96.273 21.2549 96.273 21.7089C96.273 22.1605 96.1576 22.5937 95.9269 23.0085C95.6962 23.4233 95.3735 23.7461 94.9587 23.9768C94.5439 24.2051 94.1107 24.3192 93.659 24.3192C93.2074 24.3192 92.7742 24.2051 92.3594 23.9768C91.9471 23.7461 91.6256 23.4233 91.3948 23.0085C91.1641 22.5937 91.0488 22.1605 91.0488 21.7089C91.0488 21.2549 91.1653 20.8192 91.3985 20.4019C91.6341 19.9822 91.9606 19.6607 92.3778 19.4374C92.7951 19.2115 93.2222 19.0986 93.659 19.0986ZM93.659 19.4263C93.2762 19.4263 92.9019 19.5245 92.5361 19.7208C92.1729 19.9172 91.8882 20.1995 91.682 20.5676C91.4783 20.9333 91.3764 21.3138 91.3764 21.7089C91.3764 22.1041 91.4771 22.4833 91.6783 22.8466C91.8796 23.2074 92.1618 23.4884 92.5251 23.6896C92.8884 23.8909 93.2663 23.9915 93.659 23.9915C94.0542 23.9915 94.4322 23.8909 94.793 23.6896C95.1562 23.4884 95.4385 23.2074 95.6398 22.8466C95.841 22.4833 95.9417 22.1041 95.9417 21.7089C95.9417 21.3138 95.8398 20.9333 95.6361 20.5676C95.4324 20.1995 95.1477 19.9172 94.7819 19.7208C94.4187 19.5245 94.0444 19.4263 93.659 19.4263ZM92.2637 20.1921H93.5965C94.0456 20.1921 94.3573 20.2461 94.5316 20.3541C94.7795 20.5087 94.9034 20.7235 94.9034 20.9984C94.9034 21.1726 94.8482 21.3285 94.7378 21.4659C94.6298 21.6009 94.4653 21.6991 94.2444 21.7605L94.7488 22.6809C94.8224 22.8134 94.8985 22.9128 94.9771 22.9791C95.0139 23.011 95.0667 23.0331 95.1354 23.0454V23.1705H94.2444L93.4897 21.8157H93.3203V22.5447C93.3203 22.7533 93.3473 22.8871 93.4013 22.946C93.4578 23.0049 93.578 23.038 93.7621 23.0454V23.1705H92.2048V23.0454C92.357 23.0454 92.4551 23.0196 92.4993 22.968C92.5607 22.8969 92.5914 22.7557 92.5914 22.5447V20.8069C92.5914 20.6057 92.5693 20.478 92.5251 20.424C92.4834 20.3676 92.3962 20.332 92.2637 20.3173V20.1921ZM93.3203 21.6279C93.4038 21.6402 93.4737 21.6463 93.5302 21.6463C93.6897 21.6463 93.8259 21.5862 93.9388 21.4659C94.0542 21.3457 94.1119 21.1849 94.1119 20.9836C94.1119 20.7775 94.0579 20.6216 93.9499 20.5161C93.8444 20.4081 93.6811 20.3541 93.4602 20.3541H93.3203V21.6279Z" fill="#A1A1A6"/>
</svg>
