<svg width="57" height="26" viewBox="0 0 57 26" fill="none" xmlns="http://www.w3.org/2000/svg">
<path d="M28.5667 6.20501C27.9935 5.72022 27.2909 5.44198 26.56 5.41037C24.2824 5.41037 24.1384 8.36317 24.1384 10.2504C24.1384 11.4695 24.9005 14.2507 26.5346 14.2507C27.4337 14.1548 28.3014 13.8463 29.0747 13.3477C29.2535 13.6326 29.4066 13.935 29.5319 14.2507C28.6831 14.9565 27.6584 15.3804 26.5854 15.4698C24.2146 15.4698 23.1309 12.1377 23.1309 10.0518C23.1309 7.96585 23.6812 4.63379 26.1705 4.63379C27.2169 4.66333 28.2358 4.99745 29.117 5.6L28.5667 6.20501Z" fill="#A1A1A6"/>
<path d="M30.7254 8.03805C31.24 7.53263 31.914 7.25218 32.6136 7.25244C34.5525 7.25244 34.8235 9.60927 34.8235 11.325C34.8235 12.4266 34.7134 13.5102 34.7134 14.5938C34.6372 14.9099 34.4763 15.0363 34.2985 15.0363C34.1214 15.0004 33.9618 14.8994 33.8473 14.7509C33.7328 14.6024 33.6708 14.4158 33.672 14.2236C33.6677 14.1755 33.6677 14.1272 33.672 14.0791C33.228 14.5782 32.6225 14.8785 31.9786 14.9189C31.5294 14.9189 31.0987 14.7286 30.7811 14.3899C30.4636 14.0512 30.2852 13.5919 30.2852 13.1129C30.3131 12.2396 30.6452 11.4089 31.2167 10.7827C31.7881 10.1566 32.5579 9.78006 33.3756 9.72666C33.4884 9.7182 33.6015 9.7182 33.7143 9.72666C33.655 8.93202 33.4349 8.09223 32.5035 8.09223C31.957 8.14092 31.4387 8.37151 31.0218 8.75142L30.7254 8.03805ZM33.7397 11.65C33.7397 11.2437 33.7397 10.8464 33.7397 10.4761H33.6296C32.9995 10.4842 32.3956 10.7468 31.9399 11.211C31.4842 11.6752 31.2106 12.3065 31.1742 12.9775C31.166 13.1012 31.1819 13.2255 31.2208 13.3425C31.2597 13.4594 31.3208 13.5666 31.4002 13.6572C31.4797 13.7479 31.5758 13.8201 31.6826 13.8694C31.7894 13.9187 31.9045 13.944 32.0209 13.9437C32.6432 13.8388 33.2279 13.5582 33.7143 13.131C33.7228 12.6343 33.7397 12.1377 33.7397 11.641V11.65Z" fill="#A1A1A6"/>
<path d="M39.9631 8.60671C39.3462 8.2842 38.6759 8.09399 37.9903 8.04685C37.2198 8.04685 36.8557 8.20939 36.8557 9.12141C36.8557 11.0538 40.3357 10.3495 40.3357 12.7334C40.3313 13.037 40.2705 13.3366 40.1567 13.6148C40.0429 13.8931 39.8785 14.1445 39.6729 14.3545C39.4674 14.5645 39.2248 14.7289 38.9592 14.8381C38.6936 14.9474 38.4103 14.9993 38.1258 14.9909C37.6847 14.9903 37.2488 14.8893 36.8473 14.6947C36.4458 14.5 36.0878 14.2162 35.7974 13.8622L36.1699 13.4287C36.7275 13.7833 37.3587 13.9849 38.0072 14.0157C38.8116 14.0157 39.4043 13.6364 39.4043 12.905C39.4043 11.1893 36.0175 12.002 36.0175 9.22977C35.99 8.98561 36.0113 8.738 36.08 8.50323C36.1486 8.26846 36.2631 8.05184 36.4158 7.86761C36.5686 7.68338 36.7561 7.53572 36.9662 7.43432C37.1763 7.33292 37.4041 7.28009 37.6347 7.2793C38.4886 7.37062 39.3202 7.62447 40.0901 8.02879L39.9631 8.60671Z" fill="#A1A1A6"/>
<path d="M42.0884 4.90449C42.1561 5.961 42.1476 7.4058 42.1984 8.46231C42.4139 8.21219 42.6756 8.01244 42.967 7.87567C43.2585 7.73889 43.5734 7.66807 43.8918 7.66767C44.1901 7.6672 44.4853 7.73162 44.7594 7.85698C45.0334 7.98234 45.2807 8.16601 45.4859 8.39675C45.6912 8.6275 45.8502 8.90047 45.9531 9.19898C46.0561 9.49749 46.1009 9.81525 46.0848 10.1329V14.7201C45.9443 14.7771 45.7948 14.8047 45.6445 14.8014C45.4683 14.8013 45.2925 14.7832 45.1195 14.7472C45.1195 14.5124 45.1195 14.2866 45.1195 14.0609C45.1195 12.8419 45.0349 11.6138 45.0349 9.96129C44.8909 9.01314 44.3829 8.67 43.8326 8.67C43.5315 8.68455 43.2378 8.77374 42.9747 8.93049C42.7116 9.08723 42.4864 9.30722 42.317 9.573C42.3932 11.2435 42.317 13.1128 42.4101 14.7743C42.2339 14.807 42.0556 14.8251 41.8767 14.8284C41.6904 14.8326 41.5046 14.8052 41.3263 14.7472C41.3263 14.0609 41.3263 13.3295 41.3263 12.589C41.3263 10.0606 41.2501 7.28841 41.3263 4.76904L42.0884 4.90449Z" fill="#A1A1A6"/>
<path d="M47.3888 6.78262C48.0069 6.52075 48.3541 6.27694 48.3541 5.83448C48.3458 5.72408 48.326 5.61503 48.2948 5.5094C48.2017 5.5094 48.1255 5.5094 48.0408 5.5094C47.6683 5.5094 47.5074 4.79603 47.5074 4.46192C47.5074 4.12781 47.6852 3.78467 47.9731 3.78467C48.7097 3.78467 49.0738 4.94051 49.0738 5.59067C49.0738 6.41239 48.5827 7.09867 47.3804 7.16188L47.3888 6.78262Z" fill="#A1A1A6"/>
<path d="M55.9742 4.48899C56.0758 6.06924 56.1351 7.47792 56.1351 8.83242C56.1351 9.82572 56.1351 10.7829 56.0673 11.7672C55.9742 13.8802 55.5593 15.2076 53.0023 15.2076C50.4453 15.2076 50.3352 13.537 50.2421 11.4692C50.2421 10.4488 50.1743 9.50967 50.1743 8.56152C50.1743 7.30635 50.1743 6.03312 50.2505 4.52511L50.9787 4.69668C51.0295 7.03545 51.1904 9.36519 51.2666 11.7401C51.2666 13.0223 51.3936 14.1691 52.96 14.1691C54.8227 14.1691 54.9158 13.2661 55.0513 11.7491C55.2206 9.65415 55.1106 6.71037 55.1952 4.42578L55.9742 4.48899Z" fill="#A1A1A6"/>
<path d="M34.9084 17.6997C34.6366 17.4765 34.3031 17.3558 33.9601 17.3565C32.9187 17.3565 32.8594 18.711 32.8594 19.5689C32.8594 20.1197 33.2066 21.3749 33.9516 21.3749C34.3672 21.3331 34.769 21.1944 35.1286 20.9685C35.2105 21.0969 35.2813 21.2329 35.3402 21.3749C34.9355 21.6806 34.4557 21.8532 33.9601 21.8715C32.8763 21.8715 32.3853 20.3545 32.3853 19.4063C32.3853 18.4582 32.6393 16.9321 33.7738 16.9321C34.2493 16.9468 34.7119 17.0998 35.1116 17.3746L34.9084 17.6997Z" fill="#A1A1A6"/>
<path d="M36.771 17.0862C36.8303 17.6551 36.9065 19.2985 36.9488 21.0865C37.7193 21.0413 38.1765 21.0865 38.947 21.0413C38.9854 21.2412 39.0136 21.4432 39.0317 21.6463C38.3459 21.6012 37.6939 21.5921 37.0335 21.5921H36.373C36.4238 19.9216 36.373 18.2781 36.4238 17.0771L36.771 17.0862Z" fill="#A1A1A6"/>
<path d="M42.5968 16.9141C42.5968 17.6365 42.6645 18.2776 42.6645 18.8916C42.6645 19.3431 42.6645 19.7946 42.6645 20.2281C42.6645 21.1943 42.4274 21.7993 41.259 21.7993C40.0905 21.7993 40.0482 21.0408 40.0059 20.0926C40.0059 19.6321 40.0059 19.1896 40.0059 18.7742C40.0059 18.1963 40.0059 17.6184 40.0059 16.9682L40.3361 17.0405C40.3361 18.1151 40.4292 19.1716 40.4631 20.2552C40.4631 20.8421 40.5223 21.3568 41.2336 21.3568C42.0803 21.3568 42.1311 20.9505 42.1903 20.2642C42.2665 19.307 42.1903 17.9615 42.2581 16.9231L42.5968 16.9141Z" fill="#A1A1A6"/>
<path d="M43.9002 16.9594C43.951 16.7878 44.1796 16.7246 44.4167 16.7246C45.1957 16.7246 45.9916 17.0858 45.9916 17.9075C45.9973 18.0983 45.9557 18.2872 45.8709 18.4553C45.7862 18.6234 45.6613 18.7646 45.509 18.8647C46.0254 18.946 46.3557 19.6142 46.3557 20.3818C46.3557 21.1493 45.3227 21.6279 44.5607 21.6279C44.3209 21.6523 44.0809 21.5851 43.8833 21.4383L43.9002 16.9594ZM44.7469 18.7654C44.85 18.7743 44.9536 18.76 45.0511 18.7234C45.1486 18.6867 45.2378 18.6286 45.3129 18.5528C45.388 18.477 45.4472 18.3852 45.4869 18.2834C45.5265 18.1815 45.5455 18.0719 45.5428 17.9617C45.5464 17.8508 45.5285 17.7403 45.4901 17.6372C45.4517 17.534 45.3937 17.4405 45.3197 17.3625C45.2457 17.2844 45.1574 17.2235 45.0603 17.1837C44.9631 17.1439 44.8593 17.1259 44.7554 17.131C44.6199 17.1306 44.4853 17.155 44.3574 17.2032C44.3574 17.8534 44.3574 18.2958 44.3574 18.7744L44.7469 18.7654ZM44.349 20.9687C44.4058 21.0382 44.4761 21.0936 44.5551 21.131C44.6341 21.1685 44.7198 21.187 44.8062 21.1854C45.0674 21.1677 45.3151 21.055 45.5077 20.866C45.7003 20.6769 45.8263 20.4231 45.8646 20.147C45.8657 20.0064 45.8385 19.8671 45.7849 19.7387C45.7313 19.6102 45.6525 19.4954 45.5538 19.4022C45.4551 19.3089 45.3388 19.2393 45.2128 19.198C45.0868 19.1567 44.9539 19.1446 44.8231 19.1627C44.6686 19.1412 44.512 19.1412 44.3574 19.1627C44.3574 19.7587 44.3575 20.3095 44.349 20.9687Z" fill="#A1A1A6"/>
<path fill-rule="evenodd" clip-rule="evenodd" d="M10.1763 13.4557L10.1255 13.1577L10.1763 13.4557Z" fill="#A1A1A6"/>
<path fill-rule="evenodd" clip-rule="evenodd" d="M18.0843 20.0662C16.8002 20.1082 15.5253 19.8219 14.3661 19.2313C13.2069 18.6406 12.197 17.7627 11.4208 16.6709C10.8789 15.8582 10.8874 15.8401 11.4208 16.6709C12.1694 17.6861 13.1308 18.5001 14.2277 19.0474C15.3247 19.5947 16.5267 19.8601 17.7372 19.8224C18.4909 19.8198 19.2405 19.7043 19.964 19.4792C19.9575 18.866 19.7415 18.2764 19.3565 17.8209C18.9715 17.3654 18.4439 17.0753 17.8727 17.005C17.5914 16.969 17.3072 16.969 17.026 17.005C16.3401 17.0502 15.7136 17.0682 15.1378 17.0502C13.0888 16.9869 11.751 16.4542 10.9043 15.3164C10.7691 15.1314 10.6527 14.9316 10.5572 14.7204C10.3774 14.3262 10.241 13.911 10.1508 13.4833C9.9275 12.6857 9.88165 11.8436 10.0169 11.0238C10.1521 10.204 10.4646 9.42909 10.9297 8.76062C11.5707 7.97011 12.377 7.35146 13.2836 6.95463C13.4518 6.86419 13.6242 6.78282 13.8 6.71082C14.253 6.50477 14.6729 6.22446 15.0447 5.88006C15.1124 5.81685 15.1632 5.74461 15.231 5.67237L15.1548 5.7717C15.2564 5.66334 15.341 5.55498 15.4257 5.44662C15.4475 5.42788 15.4674 5.40669 15.485 5.38341C15.5919 5.23671 15.6854 5.07948 15.7644 4.91385C15.8033 4.85075 15.8373 4.7843 15.866 4.71519C15.9168 4.5978 15.9591 4.48944 16.0015 4.37205L16.0523 4.19145C16.0523 4.06503 16.0523 3.94764 16.1115 3.83025V3.71286C16.1115 3.71286 16.1115 3.71286 16.1115 3.66771C16.1115 3.62256 16.1115 3.45099 16.1115 3.3336C16.1157 3.2946 16.1157 3.25521 16.1115 3.21621C16.1115 3.21621 16.1115 3.21621 16.1115 3.14397C16.1115 3.07173 16.1115 2.92725 16.0523 2.81889C16.0432 2.7692 16.029 2.72073 16.0099 2.67441C16.0099 2.62023 16.0099 2.56605 16.0099 2.5209V2.44866C16.0099 2.36739 15.9422 2.28612 15.8998 2.20485C15.8721 2.14281 15.841 2.08251 15.8067 2.02425C15.8067 1.96104 15.722 1.8888 15.6797 1.82559C15.6535 1.78196 15.6252 1.73976 15.595 1.69917C15.5775 1.67589 15.5576 1.6547 15.5358 1.63596L15.4426 1.5276C15.3763 1.45082 15.3056 1.37844 15.231 1.31088L15.1209 1.21155C15.0241 1.12912 14.9223 1.0537 14.8161 0.985804C14.8 0.965867 14.7797 0.950374 14.7568 0.940654C14.6239 0.854674 14.4852 0.779221 14.3419 0.714905L14.1387 0.597515L13.8 0.471095L13.6392 0.416915L13.2666 0.326615H13.0888C12.8943 0.269469 12.6963 0.227221 12.4961 0.200195L11.6494 0.200195H11.2684L10.5826 0.272435C10.0626 0.347306 9.54776 0.458921 9.0416 0.606545L8.55898 0.778115L8.05096 0.949684L7.71228 1.10319L7.2466 1.30185H7.18733L7.02646 1.38312C6.81478 1.48245 6.61157 1.59081 6.40837 1.7082L6.19669 1.83462L5.64634 2.18679L5.44313 2.33127C5.25686 2.45769 5.07905 2.59314 4.90124 2.73762L4.74884 2.90919L4.58797 3.04464L4.11382 3.46905L3.6058 3.97473L3.47879 4.08309V4.12824C3.11945 4.5118 2.78294 4.91895 2.47122 5.34729C2.35268 5.50983 2.24261 5.6814 2.14101 5.85297L1.89547 6.24126L1.72613 6.52119C1.47634 6.9757 1.25295 7.44615 1.05724 7.92987C0.938699 8.32718 0.760893 8.76062 0.633888 9.176C0.47208 9.73847 0.344806 10.3116 0.252874 10.8917C-0.143582 13.4552 0.19583 16.0866 1.22658 18.4408C1.59892 19.2723 2.05304 20.0593 2.58129 20.7886C2.79579 21.0775 3.01593 21.3575 3.24172 21.6284C3.36025 21.7728 3.48726 21.9083 3.61426 22.0437C3.88521 22.3327 4.17308 22.6036 4.46096 22.8655C4.74884 23.1273 4.99438 23.317 5.30766 23.5247C6.72366 24.5687 8.33588 25.2712 10.0322 25.5835C11.0539 25.7834 12.0952 25.8441 13.1311 25.7641C13.9688 25.6874 14.7955 25.5087 15.595 25.2313C15.9701 25.0975 16.3376 24.9407 16.6957 24.7618C16.887 24.6733 17.0735 24.5739 17.2546 24.4638C17.4408 24.3554 17.6186 24.238 17.7964 24.1116L18.1351 23.8497L18.3722 23.6511C18.6611 23.4 18.9199 23.1119 19.1427 22.7932C19.523 22.1948 19.7904 21.5231 19.9301 20.8157C19.996 20.4922 20.0301 20.1624 20.0317 19.8314C19.3876 19.9516 18.7373 20.03 18.0843 20.0662Z" fill="#A1A1A6"/>
<path fill-rule="evenodd" clip-rule="evenodd" d="M15.1462 17.0223C13.0972 16.9591 11.7595 16.4263 10.9128 15.2886C10.542 14.7518 10.2849 14.1356 10.1592 13.4826L10.1084 13.1846C10.6164 17.1758 13.7831 19.8216 17.7287 19.8216C18.4859 19.8206 19.2388 19.7019 19.964 19.4694C19.837 17.9524 18.8463 16.8598 17.0005 17.0043C16.3486 17.0223 15.722 17.0404 15.1462 17.0223Z" fill="#A1A1A6"/>
<path fill-rule="evenodd" clip-rule="evenodd" d="M12.1745 5.42821C11.7852 5.50215 11.3842 5.45181 11.0216 5.2835C10.6591 5.1152 10.3513 4.83643 10.1368 4.4822C9.92236 4.12798 9.81078 3.71407 9.8161 3.29244C9.82142 2.87082 9.94342 2.46026 10.1668 2.11232C10.3901 1.76438 10.7048 1.49456 11.0715 1.33673C11.4381 1.1789 11.8403 1.14009 12.2275 1.22518C12.6148 1.31027 12.9698 1.51547 13.2481 1.81501C13.5264 2.11455 13.7155 2.49508 13.7917 2.90884C13.843 3.18774 13.8418 3.47475 13.788 3.75313C13.7342 4.0315 13.629 4.29567 13.4784 4.5302C13.3279 4.76473 13.135 4.96493 12.9112 5.11911C12.6873 5.27329 12.4368 5.37837 12.1745 5.42821Z" fill="#A1A1A6"/>
<path d="M12.5129 3.42343C12.714 3.42343 12.877 3.17277 12.877 2.86357C12.877 2.55437 12.714 2.30371 12.5129 2.30371C12.3119 2.30371 12.1489 2.55437 12.1489 2.86357C12.1489 3.17277 12.3119 3.42343 12.5129 3.42343Z" fill="#A1A1A6"/>
<path fill-rule="evenodd" clip-rule="evenodd" d="M9.00766 16.8235C8.55891 16.7152 7.71221 16.4533 7.61061 16.1734C7.509 15.8934 8.4065 15.5051 8.61818 15.2704C8.82985 15.0356 8.67745 14.6834 8.47424 14.7376C8.27103 14.7918 7.92389 14.9814 7.39047 15.162C6.85705 15.3426 5.99342 15.162 5.37533 15.9837C4.78883 15.7038 4.26411 15.2955 3.83524 14.7852C3.40638 14.275 3.08297 13.6742 2.88604 13.0219C2.87214 12.9531 2.84537 12.8879 2.80733 12.8304C2.76929 12.7728 2.72076 12.724 2.66464 12.687C2.60852 12.6499 2.54597 12.6252 2.48072 12.6145C2.41547 12.6038 2.34886 12.6072 2.28488 12.6246C2.15528 12.6569 2.04276 12.7422 1.97151 12.8621C1.90025 12.982 1.87597 13.1269 1.90387 13.2657C2.13656 14.0935 2.53704 14.8567 3.07694 15.5011C3.61684 16.1456 4.28297 16.6556 5.02818 16.9951C5.0373 17.1798 5.08046 17.3609 5.15519 17.5279C5.52587 18.1154 5.99349 18.6264 6.5353 19.0359C6.6003 19.0754 6.66009 19.124 6.71311 19.1803C7.01792 19.4603 7.41587 19.9569 7.55981 20.0833C7.70374 20.2098 8.00009 20.4084 8.11016 20.282C8.22023 20.1556 8.24563 20.0472 8.04242 19.7402C7.83922 19.4332 6.98405 18.6114 7.19573 18.3947C7.4074 18.178 8.3303 19.0539 8.63511 19.2526C8.93992 19.4512 9.1008 19.5054 9.21087 19.3519C9.32094 19.1984 9.28707 19.0449 9.1262 18.8643C8.96532 18.6837 7.54287 17.7536 7.71221 17.5459C7.88155 17.3382 8.74518 17.5459 9.13466 17.6091C9.52414 17.6723 9.84589 17.6091 9.93056 17.3202C10.0152 17.0312 9.44794 16.9228 9.00766 16.8235Z" fill="#A1A1A6"/>
</svg>
