<svg width="110" height="26" viewBox="0 0 110 26" fill="none" xmlns="http://www.w3.org/2000/svg">
<path fill-rule="evenodd" clip-rule="evenodd" d="M34.5671 18.3683C30.4923 22.0566 24.3665 18.7872 24.2138 13.1674C24.0665 7.23358 28.894 5.03449 33.6451 6.10491C35.4561 6.02928 36.4544 3.47553 33.6943 2.31202C32.2394 1.79422 30.6967 1.61855 29.1722 1.79731C27.6477 1.97607 26.1776 2.50488 24.863 3.34742C23.3128 4.36756 22.0308 5.79084 21.1373 7.48373C20.2222 9.16727 19.7474 11.0819 19.7627 13.0278C19.7565 15.0064 20.2705 16.9472 21.2464 18.63C22.2369 20.3528 23.6297 21.7721 25.2885 22.7489C27.0229 23.7579 28.9693 24.2805 30.945 24.2673C32.792 24.3153 34.5893 23.6265 35.9852 22.3358C38.489 20.1368 36.9508 18.025 34.5671 18.3683ZM9.8623 1.74178C9.22755 1.78867 8.61231 1.99633 8.06779 2.34739C7.52328 2.69845 7.06518 3.18294 6.73126 3.76058C4.48389 10.0726 2.2401 16.3903 0 22.7139L3.93288 24.1741L5.43841 19.7819H14.2697L15.7861 24.2673L19.7627 22.6325L12.7915 3.42894C12.5082 2.87601 12.0809 2.42238 11.5611 2.12298C11.0412 1.82359 10.4512 1.69116 9.8623 1.74178ZM6.70396 16.0645L9.8623 6.84374V6.81477L13.0043 16.0645H6.70396ZM107.738 17.6003C107.299 17.569 106.859 17.6572 106.461 17.8564C106.254 17.9877 106.085 18.1769 105.971 18.4035C105.858 18.6301 105.805 18.8855 105.817 19.142C105.806 19.3315 105.833 19.5213 105.896 19.6989C105.959 19.8765 106.057 20.0378 106.183 20.1717C106.381 20.3435 106.612 20.4666 106.859 20.5324L105.572 22.7372H106.707L107.798 20.7477H108.687V22.7372H109.641V17.6003H107.738ZM108.687 19.875H107.634C107.428 19.8904 107.222 19.8376 107.045 19.7238C106.971 19.6723 106.91 19.6013 106.869 19.5178C106.828 19.4343 106.808 19.341 106.81 19.2467C106.795 19.1224 106.814 18.9961 106.866 18.8834C106.917 18.7707 106.998 18.6764 107.099 18.6125C107.294 18.517 107.508 18.4769 107.721 18.4962H108.687V19.875ZM102.981 19.6016H100.603V17.6003H99.6481V22.7372H100.603V20.4974H102.981V22.7372H103.936V17.6003H102.981V19.6016ZM96.5334 19.6016H94.1552V17.6003H93.2006V22.7372H94.1552V20.4974H96.5334V22.7372H97.488V17.6003H96.5334V19.6016ZM88.9949 17.6003C88.5233 17.5623 88.0504 17.6525 87.6202 17.8622C87.4354 17.9655 87.2792 18.1186 87.1672 18.3065C87.0552 18.4943 86.9914 18.7102 86.9821 18.9325H87.953C87.9582 18.848 87.9827 18.7661 88.0246 18.6941C88.0664 18.622 88.1243 18.5621 88.193 18.5195C88.432 18.4032 88.6948 18.3531 88.9568 18.3741C89.2054 18.3475 89.4551 18.411 89.6658 18.5545C89.7566 18.6599 89.8243 18.7856 89.864 18.9225C89.9036 19.0593 89.9142 19.2038 89.895 19.3456V19.5318H89.1695C88.6081 19.4922 88.0462 19.6001 87.533 19.8459C87.3 19.9747 87.1045 20.1692 86.968 20.4082C86.8314 20.6472 86.759 20.9216 86.7585 21.2015C86.7545 21.4162 86.7967 21.6289 86.8818 21.8235C86.9669 22.0182 87.0926 22.1894 87.2494 22.3242C87.6072 22.6144 88.0495 22.7607 88.4985 22.7372C89.0126 22.7407 89.5098 22.5419 89.895 22.1788V22.7372H90.8496V19.5667C90.8753 19.2855 90.847 19.0018 90.7663 18.7327C90.6857 18.4636 90.5543 18.2149 90.3804 18.0018C89.9763 17.7004 89.4864 17.5584 88.9949 17.6003ZM89.895 20.4684C89.9098 20.8222 89.8118 21.1708 89.6168 21.4574C89.4948 21.6198 89.3392 21.75 89.1623 21.8377C88.9853 21.9255 88.7918 21.9685 88.5967 21.9634C88.3597 21.973 88.1287 21.8833 87.953 21.7133C87.8862 21.6419 87.8341 21.5564 87.8003 21.4622C87.7665 21.368 87.7516 21.2673 87.7566 21.1665C87.7491 20.9868 87.8014 20.8101 87.9042 20.6674C88.007 20.5248 88.1537 20.4254 88.3185 20.3869C88.6255 20.3089 88.9416 20.2796 89.2567 20.2997H89.895V20.4684ZM83.7147 20.0205C83.9246 19.948 84.1128 19.8174 84.2601 19.6423C84.3904 19.4386 84.4572 19.1964 84.4511 18.95C84.4564 18.772 84.426 18.5948 84.362 18.4303C84.2981 18.2658 84.2019 18.1178 84.0801 17.996C83.6887 17.7037 83.2149 17.5639 82.7382 17.6003H80.4964V22.7372H82.8092C83.299 22.7706 83.7845 22.6227 84.1838 22.3184C84.3275 22.1834 84.4418 22.0166 84.519 21.8298C84.5963 21.6429 84.6345 21.4404 84.631 21.2363C84.6489 20.948 84.5646 20.6632 84.3949 20.438C84.2252 20.2129 83.9825 20.0639 83.7147 20.0205ZM81.451 18.4788H82.6182C82.8493 18.4568 83.0812 18.5095 83.2837 18.63C83.3406 18.6838 83.3857 18.7502 83.4158 18.8246C83.446 18.899 83.4605 18.9795 83.4583 19.0605C83.4628 19.139 83.4504 19.2176 83.4221 19.2902C83.3937 19.3628 83.3501 19.4275 83.2946 19.4794C83.0763 19.6175 82.8213 19.6748 82.5692 19.6423H81.451V18.4788ZM83.4474 21.6552C83.2515 21.806 83.0119 21.878 82.771 21.8588H81.451V20.4626H82.7382C82.957 20.4494 83.1752 20.4976 83.3711 20.6022C83.4581 20.6645 83.5284 20.7497 83.5752 20.8496C83.6221 20.9496 83.6439 21.0608 83.6384 21.1723C83.6406 21.2627 83.6247 21.3524 83.5917 21.4357C83.5588 21.5189 83.5096 21.5939 83.4474 21.6552ZM76.5034 20.4219L74.9815 17.6003H73.8469L76.0071 21.405L75.1944 22.9757C75.1419 23.0765 75.0736 23.1671 74.9925 23.2434C74.8807 23.3413 74.7387 23.3911 74.5943 23.383H74.2288V24.2673H74.6216C74.9122 24.2781 75.1986 24.1904 75.4398 24.017C75.6691 23.8476 75.8594 23.6249 75.9962 23.3655L78.9745 17.6003H77.9272L76.5034 20.4219ZM72.9524 17.6003H71.8232L70.7159 19.3339L69.6032 17.6003H68.4085L70.105 20.0902L68.3267 22.7372H69.4723L70.6559 20.8698L71.8614 22.7372H73.0669L71.2777 20.1019L72.9524 17.6003ZM64.732 17.6003C64.2604 17.5631 63.7877 17.6533 63.3573 17.8622C63.1725 17.9655 63.0163 18.1186 62.9043 18.3065C62.7923 18.4943 62.7285 18.7102 62.7192 18.9325H63.6956C63.6983 18.848 63.7213 18.7657 63.7623 18.6934C63.8034 18.621 63.8611 18.5612 63.9301 18.5195C64.1691 18.4032 64.4319 18.3531 64.6939 18.3741C64.9425 18.3475 65.1922 18.411 65.4029 18.5545C65.4937 18.6599 65.5614 18.7856 65.6011 18.9225C65.6407 19.0593 65.6513 19.2038 65.6321 19.3456V19.5318H64.9066C64.3452 19.4922 63.7833 19.6001 63.2701 19.8459C63.0377 19.9749 62.843 20.1696 62.7073 20.4086C62.5717 20.6477 62.5003 20.922 62.501 21.2015C62.4963 21.4157 62.5375 21.6282 62.6217 21.8228C62.7058 22.0174 62.8306 22.189 62.9865 22.3242C63.3443 22.6144 63.7866 22.7607 64.2356 22.7372C64.7498 22.7416 65.2474 22.5427 65.6321 22.1788V22.7372H66.5867V19.5667C66.6137 19.2855 66.586 19.0013 66.5053 18.732C66.4246 18.4627 66.2925 18.2142 66.1175 18.0018C65.7137 17.6998 65.2236 17.5577 64.732 17.6003ZM65.6321 20.4684C65.6469 20.8222 65.5489 21.1708 65.3539 21.4574C65.2323 21.6203 65.0768 21.7508 64.8998 21.8386C64.7227 21.9264 64.529 21.9692 64.3338 21.9634C64.2172 21.9688 64.1008 21.9494 63.9913 21.9065C63.8817 21.8635 63.7812 21.7979 63.6956 21.7133C63.6269 21.6432 63.5733 21.5579 63.5385 21.4635C63.5036 21.3691 63.4883 21.2678 63.4937 21.1665C63.4862 20.9868 63.5385 20.8101 63.6413 20.6674C63.7441 20.5248 63.8908 20.4254 64.0556 20.3869C64.3626 20.3089 64.6787 20.2796 64.9938 20.2997H65.6321V20.4684ZM58.4318 17.6003C58.159 17.5913 57.887 17.6366 57.6298 17.7341C57.3645 17.8321 57.1315 18.0099 56.9589 18.2461V17.6003H56.048V24.2673H57.008V22.0972C57.1688 22.315 57.379 22.4853 57.6189 22.5918C57.8776 22.6993 58.1544 22.7488 58.4318 22.7372C58.7224 22.7612 59.0142 22.7146 59.2854 22.6007C59.5566 22.4868 59.8 22.3088 59.9972 22.0799C60.4024 21.5401 60.5977 20.8549 60.5427 20.1659C60.5697 19.8049 60.5275 19.4419 60.4187 19.0989C60.31 18.7558 60.1369 18.4398 59.91 18.1704C59.7128 17.9733 59.4801 17.8212 59.2259 17.7232C58.9718 17.6251 58.7016 17.5833 58.4318 17.6003ZM59.299 21.2887C59.195 21.4765 59.0452 21.6307 58.8657 21.7352C58.6861 21.8397 58.4834 21.8905 58.279 21.8821C58.0798 21.8916 57.8817 21.8443 57.7053 21.7451C57.5289 21.646 57.3805 21.4985 57.2753 21.3178C57.0853 20.9687 56.9926 20.5692 57.008 20.1659C56.9957 19.7604 57.0902 19.3594 57.2808 19.0082C57.3921 18.8466 57.5364 18.7139 57.7028 18.6204C57.8692 18.5268 58.0534 18.4747 58.2413 18.468C58.4293 18.4612 58.6163 18.5001 58.7882 18.5816C58.96 18.6631 59.1123 18.785 59.2336 18.9384C59.4659 19.2977 59.5773 19.7304 59.5499 20.1659C59.5629 20.5575 59.4762 20.9454 59.299 21.2887ZM49.955 18.4962H51.6295V22.7372H52.5841V18.4962H54.2752V17.6003H49.955V18.4962ZM47.2058 21.6609C47.0498 21.7894 46.8573 21.8572 46.6603 21.8529C46.4139 21.8423 46.1786 21.7408 45.9946 21.5658C45.8105 21.3907 45.6891 21.153 45.6511 20.8931C45.5214 20.4013 45.4626 19.8912 45.4767 19.3805C45.4593 18.8158 45.5368 18.2523 45.7057 17.7168C45.7677 17.4959 45.8955 17.3026 46.0697 17.1661C46.2439 17.0297 46.4551 16.9575 46.6712 16.9605C46.8604 16.952 47.0461 17.016 47.1949 17.1408C47.2675 17.2092 47.3255 17.2934 47.3651 17.3877C47.4046 17.482 47.4247 17.5843 47.4239 17.6877H48.4004C48.3989 17.4597 48.3542 17.2345 48.2689 17.0255C48.1836 16.8165 48.0595 16.6281 47.904 16.4717C47.559 16.1859 47.1294 16.0414 46.6931 16.0645C46.3325 16.0407 45.9729 16.1265 45.6562 16.3118C45.3395 16.4972 45.0787 16.7745 44.9039 17.1117C44.6002 17.8372 44.4565 18.6273 44.4838 19.4213C44.4644 20.1537 44.5869 20.8825 44.8438 21.5621C44.9897 21.8411 45.1887 22.0846 45.4281 22.2768C45.6674 22.4689 45.9417 22.6055 46.2335 22.6778C46.5253 22.7502 46.828 22.7566 47.1223 22.6967C47.4165 22.6368 47.6958 22.5119 47.9421 22.33C48.2693 21.9898 48.4576 21.5258 48.4659 21.0385H47.4731C47.4563 21.2734 47.3615 21.494 47.2058 21.6609ZM78.0363 4.88332C77.6079 4.86121 77.1809 4.95105 76.7926 5.14508V1.75342H74.8452V5.14508C74.4568 4.95105 74.0298 4.86121 73.6015 4.88332C71.6159 4.88332 70.405 6.16894 70.405 9.0486C70.405 11.7247 71.496 13.1325 73.2743 13.1325C73.8209 13.1594 74.3641 13.0267 74.8452 12.7486V15.5933H76.7926V12.7486C77.2737 13.0267 77.8168 13.1594 78.3635 13.1325C80.0163 13.1325 81.2327 11.6724 81.2327 9.00216C81.2327 6.11667 80.0218 4.88332 78.0363 4.88332ZM74.8452 11.2243C74.5255 11.3476 74.1867 11.4048 73.8469 11.3931C72.8269 11.3931 72.4069 10.503 72.4069 9.0486C72.4069 7.46042 72.8596 6.62275 73.7542 6.62275C74.131 6.59233 74.5083 6.67276 74.8452 6.85539V11.2243ZM77.7908 11.3931C77.4511 11.4044 77.1124 11.3471 76.7926 11.2243V6.85539C77.1294 6.67276 77.5068 6.59233 77.8835 6.62275C78.7781 6.62275 79.2308 7.40816 79.2308 9.00216C79.2308 10.4507 78.6854 11.3931 77.7908 11.3931ZM56.228 5.37772V9.28139C56.2749 9.85884 56.2325 10.4405 56.1026 11.0033C55.9926 11.3869 55.7636 11.7191 55.4534 11.9457L55.9879 13.1616C57.5534 12.6904 58.1427 11.9632 58.1427 9.65364V6.78565C58.4843 6.71705 58.8314 6.68383 59.179 6.68666C59.5195 6.68369 59.8594 6.71692 60.1937 6.78565V12.9987H62.1464V5.37772C61.1873 5.0506 60.186 4.8858 59.179 4.88914C58.1774 4.88583 57.1816 5.05064 56.228 5.37772ZM88.4767 12.2424C88.0053 11.5553 87.7773 10.7125 87.8331 9.86314V7.73384C87.8331 6.58197 87.7076 6.15733 87.4185 5.73847C87.0257 5.14509 86.3603 4.88914 85.1439 4.88914C84.2982 4.88331 83.4552 4.99083 82.6346 5.20913L82.9237 6.73324C83.4312 6.64901 83.9432 6.59848 84.4566 6.58198C85.7494 6.58198 85.8966 6.78567 85.8966 7.81536V8.19927C85.5765 8.10667 85.2463 8.05973 84.9147 8.05965C82.9619 8.05965 81.9309 9.07197 81.9309 10.7474C81.9309 12.3181 83.0273 13.1791 84.3747 13.1791C84.865 13.1823 85.3517 13.0876 85.8093 12.8999C86.0473 12.7893 86.274 12.6528 86.4857 12.4927C86.6807 12.7766 86.937 13.006 87.233 13.1616L88.4767 12.2424ZM84.9474 11.521C84.2492 11.521 83.8565 11.2301 83.8565 10.468C83.8565 9.67104 84.3583 9.40353 85.3238 9.40353C85.5175 9.3986 85.7108 9.42602 85.8966 9.48491V10.0492C85.8794 10.4788 85.9142 10.9091 86.0002 11.3292C85.6632 11.4612 85.3064 11.5261 84.9474 11.521ZM69.6522 10.1657C69.6522 8.46113 68.6704 7.40802 66.8321 7.40802C66.4094 7.41477 65.9893 7.48133 65.5829 7.60587V5.01711H63.6301L63.6246 12.5857C64.5284 12.9802 65.4956 13.1838 66.4721 13.1849C68.5395 13.1849 69.6522 12.0447 69.6522 10.1657ZM65.5829 11.4571V9.17075C65.8624 9.09158 66.1502 9.05055 66.4394 9.0486C67.334 9.0486 67.6339 9.51405 67.6339 10.2645C67.6339 11.0441 67.3776 11.5793 66.4394 11.5793C66.1494 11.5929 65.8594 11.5515 65.5829 11.4571ZM49.4913 1.73595C49.1639 1.76683 48.8483 1.88139 48.5711 2.06972C48.2939 2.25805 48.0632 2.51468 47.8986 2.81807C46.753 6.19223 45.6184 9.57215 44.4729 12.9463L46.4748 13.7317L47.2385 11.3814H51.7333L52.5078 13.7783L54.5315 12.9057L50.9859 2.64352C50.8483 2.35204 50.6331 2.11046 50.3672 1.949C50.1013 1.78754 49.7966 1.71337 49.4913 1.73595ZM47.8822 9.39771L49.4913 4.46447V4.45283L51.0895 9.39771H47.8822ZM40.8782 0.200195C40.6874 0.200962 40.5047 0.282176 40.3699 0.426021C40.235 0.569867 40.159 0.764719 40.1582 0.968146V25.0351C40.1582 25.238 40.2337 25.4326 40.3683 25.5761C40.5028 25.7196 40.6853 25.8002 40.8755 25.8002C41.0658 25.8002 41.2481 25.7196 41.3826 25.5761C41.5172 25.4326 41.5928 25.238 41.5928 25.0351V0.968146C41.5924 0.765627 41.5171 0.571472 41.3833 0.427726C41.2495 0.283979 41.0681 0.202185 40.8782 0.200195Z" fill="#A1A1A6"/>
</svg>
